<?xml version="1.0" encoding="UTF-8" standalone="no"?>
<!DOCTYPE svg PUBLIC "-//W3C//DTD SVG 1.1//EN"
 "http://www.w3.org/Graphics/SVG/1.1/DTD/svg11.dtd">
<!-- Generated by graphviz version 2.47.0 (20210316.0004)
 -->
<!-- Title: G Pages: 1 -->
<svg width="843pt" height="2934pt"
 viewBox="0.00 0.00 843.20 2934.20" xmlns="http://www.w3.org/2000/svg" xmlns:xlink="http://www.w3.org/1999/xlink">
<g id="graph0" class="graph" transform="scale(1 1) rotate(0) translate(21.6 2912.6)">
<title>G</title>
<polygon fill="#111111" stroke="transparent" points="-21.6,21.6 -21.6,-2912.6 821.6,-2912.6 821.6,21.6 -21.6,21.6"/>
<!-- ../lib/api.js -->
<g id="node1" class="node">
<title>../lib/api.js</title>
<path fill="none" stroke="#c6c5fe" d="M421.33,-167C421.33,-167 357.67,-167 357.67,-167 353.83,-167 350,-163.17 350,-159.33 350,-159.33 350,-151.67 350,-151.67 350,-147.83 353.83,-144 357.67,-144 357.67,-144 421.33,-144 421.33,-144 425.17,-144 429,-147.83 429,-151.67 429,-151.67 429,-159.33 429,-159.33 429,-163.17 425.17,-167 421.33,-167"/>
<text text-anchor="middle" x="389.5" y="-151.8" font-family="Arial" font-size="14.00" fill="#c6c5fe">../lib/api.js</text>
</g>
<!-- ../lib/cyclic.js -->
<g id="node2" class="node">
<title>../lib/cyclic.js</title>
<path fill="none" stroke="#cfffac" d="M629.83,-228C629.83,-228 550.17,-228 550.17,-228 546.33,-228 542.5,-224.17 542.5,-220.33 542.5,-220.33 542.5,-212.67 542.5,-212.67 542.5,-208.83 546.33,-205 550.17,-205 550.17,-205 629.83,-205 629.83,-205 633.67,-205 637.5,-208.83 637.5,-212.67 637.5,-212.67 637.5,-220.33 637.5,-220.33 637.5,-224.17 633.67,-228 629.83,-228"/>
<text text-anchor="middle" x="590" y="-212.8" font-family="Arial" font-size="14.00" fill="#cfffac">../lib/cyclic.js</text>
</g>
<!-- ../lib/api.js&#45;&gt;../lib/cyclic.js -->
<g id="edge1" class="edge">
<title>../lib/api.js&#45;&gt;../lib/cyclic.js</title>
<path fill="none" stroke="#757575" d="M428.3,-167.12C460.45,-177 506.78,-191.23 541.44,-201.88"/>
<polygon fill="#757575" stroke="#757575" points="540.75,-205.33 551.34,-204.93 542.81,-198.64 540.75,-205.33"/>
</g>
<!-- ../lib/graph.js -->
<g id="node3" class="node">
<title>../lib/graph.js</title>
<path fill="none" stroke="#cfffac" d="M630.33,-187C630.33,-187 549.67,-187 549.67,-187 545.83,-187 542,-183.17 542,-179.33 542,-179.33 542,-171.67 542,-171.67 542,-167.83 545.83,-164 549.67,-164 549.67,-164 630.33,-164 630.33,-164 634.17,-164 638,-167.83 638,-171.67 638,-171.67 638,-179.33 638,-179.33 638,-183.17 634.17,-187 630.33,-187"/>
<text text-anchor="middle" x="590" y="-171.8" font-family="Arial" font-size="14.00" fill="#cfffac">../lib/graph.js</text>
</g>
<!-- ../lib/api.js&#45;&gt;../lib/graph.js -->
<g id="edge2" class="edge">
<title>../lib/api.js&#45;&gt;../lib/graph.js</title>
<path fill="none" stroke="#757575" d="M429.24,-159.4C458.49,-162.35 499.06,-166.44 532,-169.76"/>
<polygon fill="#757575" stroke="#757575" points="531.66,-173.24 541.96,-170.76 532.36,-166.28 531.66,-173.24"/>
</g>
<!-- ../lib/log.js -->
<g id="node4" class="node">
<title>../lib/log.js</title>
<path fill="none" stroke="#cfffac" d="M778.83,-127C778.83,-127 714.17,-127 714.17,-127 710.33,-127 706.5,-123.17 706.5,-119.33 706.5,-119.33 706.5,-111.67 706.5,-111.67 706.5,-107.83 710.33,-104 714.17,-104 714.17,-104 778.83,-104 778.83,-104 782.67,-104 786.5,-107.83 786.5,-111.67 786.5,-111.67 786.5,-119.33 786.5,-119.33 786.5,-123.17 782.67,-127 778.83,-127"/>
<text text-anchor="middle" x="746.5" y="-111.8" font-family="Arial" font-size="14.00" fill="#cfffac">../lib/log.js</text>
</g>
<!-- ../lib/api.js&#45;&gt;../lib/log.js -->
<g id="edge3" class="edge">
<title>../lib/api.js&#45;&gt;../lib/log.js</title>
<path fill="none" stroke="#757575" d="M429.17,-151.14C494.08,-143.83 624.86,-129.09 696.25,-121.05"/>
<polygon fill="#757575" stroke="#757575" points="696.8,-124.51 706.34,-119.91 696.01,-117.55 696.8,-124.51"/>
</g>
<!-- ../lib/tree.js -->
<g id="node5" class="node">
<title>../lib/tree.js</title>
<path fill="none" stroke="#c6c5fe" d="M624.83,-107C624.83,-107 555.17,-107 555.17,-107 551.33,-107 547.5,-103.17 547.5,-99.33 547.5,-99.33 547.5,-91.67 547.5,-91.67 547.5,-87.83 551.33,-84 555.17,-84 555.17,-84 624.83,-84 624.83,-84 628.67,-84 632.5,-87.83 632.5,-91.67 632.5,-91.67 632.5,-99.33 632.5,-99.33 632.5,-103.17 628.67,-107 624.83,-107"/>
<text text-anchor="middle" x="590" y="-91.8" font-family="Arial" font-size="14.00" fill="#c6c5fe">../lib/tree.js</text>
</g>
<!-- ../lib/api.js&#45;&gt;../lib/tree.js -->
<g id="edge4" class="edge">
<title>../lib/api.js&#45;&gt;../lib/tree.js</title>
<path fill="none" stroke="#757575" d="M428.77,-143.93C460.76,-134.26 506.56,-120.42 541,-110.01"/>
<polygon fill="#757575" stroke="#757575" points="542.29,-113.28 550.84,-107.03 540.26,-106.58 542.29,-113.28"/>
</g>
<!-- ../lib/tree.js&#45;&gt;../lib/log.js -->
<g id="edge5" class="edge">
<title>../lib/tree.js&#45;&gt;../lib/log.js</title>
<path fill="none" stroke="#757575" d="M632.81,-100.91C652.38,-103.45 675.83,-106.48 696.25,-109.12"/>
<polygon fill="#757575" stroke="#757575" points="695.95,-112.61 706.31,-110.43 696.85,-105.67 695.95,-112.61"/>
</g>
<!-- amd.js -->
<g id="node6" class="node">
<title>amd.js</title>
<path fill="none" stroke="#c6c5fe" d="M149.83,-310C149.83,-310 106.17,-310 106.17,-310 102.33,-310 98.5,-306.17 98.5,-302.33 98.5,-302.33 98.5,-294.67 98.5,-294.67 98.5,-290.83 102.33,-287 106.17,-287 106.17,-287 149.83,-287 149.83,-287 153.67,-287 157.5,-290.83 157.5,-294.67 157.5,-294.67 157.5,-302.33 157.5,-302.33 157.5,-306.17 153.67,-310 149.83,-310"/>
<text text-anchor="middle" x="128" y="-294.8" font-family="Arial" font-size="14.00" fill="#c6c5fe">amd.js</text>
</g>
<!-- amd.js&#45;&gt;../lib/api.js -->
<g id="edge6" class="edge">
<title>amd.js&#45;&gt;../lib/api.js</title>
<path fill="none" stroke="#757575" d="M157.65,-298.39C184.36,-297.24 224.67,-292.79 256,-277.5 306.21,-253 350.87,-203.27 373.28,-175.47"/>
<polygon fill="#757575" stroke="#757575" points="376.3,-177.29 379.75,-167.27 370.8,-172.95 376.3,-177.29"/>
</g>
<!-- amd/amdes6.js -->
<g id="node7" class="node">
<title>amd/amdes6.js</title>
<path fill="none" stroke="#cfffac" d="M177.33,-351C177.33,-351 78.67,-351 78.67,-351 74.83,-351 71,-347.17 71,-343.33 71,-343.33 71,-335.67 71,-335.67 71,-331.83 74.83,-328 78.67,-328 78.67,-328 177.33,-328 177.33,-328 181.17,-328 185,-331.83 185,-335.67 185,-335.67 185,-343.33 185,-343.33 185,-347.17 181.17,-351 177.33,-351"/>
<text text-anchor="middle" x="128" y="-335.8" font-family="Arial" font-size="14.00" fill="#cfffac">amd/amdes6.js</text>
</g>
<!-- amd/circular/a.js -->
<g id="node8" class="node">
<title>amd/circular/a.js</title>
<path fill="none" stroke="#cfffac" d="M179.83,-392C179.83,-392 76.17,-392 76.17,-392 72.33,-392 68.5,-388.17 68.5,-384.33 68.5,-384.33 68.5,-376.67 68.5,-376.67 68.5,-372.83 72.33,-369 76.17,-369 76.17,-369 179.83,-369 179.83,-369 183.67,-369 187.5,-372.83 187.5,-376.67 187.5,-376.67 187.5,-384.33 187.5,-384.33 187.5,-388.17 183.67,-392 179.83,-392"/>
<text text-anchor="middle" x="128" y="-376.8" font-family="Arial" font-size="14.00" fill="#cfffac">amd/circular/a.js</text>
</g>
<!-- amd/circular/b.js -->
<g id="node9" class="node">
<title>amd/circular/b.js</title>
<path fill="none" stroke="#cfffac" d="M179.83,-433C179.83,-433 76.17,-433 76.17,-433 72.33,-433 68.5,-429.17 68.5,-425.33 68.5,-425.33 68.5,-417.67 68.5,-417.67 68.5,-413.83 72.33,-410 76.17,-410 76.17,-410 179.83,-410 179.83,-410 183.67,-410 187.5,-413.83 187.5,-417.67 187.5,-417.67 187.5,-425.33 187.5,-425.33 187.5,-429.17 183.67,-433 179.83,-433"/>
<text text-anchor="middle" x="128" y="-417.8" font-family="Arial" font-size="14.00" fill="#cfffac">amd/circular/b.js</text>
</g>
<!-- amd/circular/c.js -->
<g id="node10" class="node">
<title>amd/circular/c.js</title>
<path fill="none" stroke="#cfffac" d="M179.83,-474C179.83,-474 76.17,-474 76.17,-474 72.33,-474 68.5,-470.17 68.5,-466.33 68.5,-466.33 68.5,-458.67 68.5,-458.67 68.5,-454.83 72.33,-451 76.17,-451 76.17,-451 179.83,-451 179.83,-451 183.67,-451 187.5,-454.83 187.5,-458.67 187.5,-458.67 187.5,-466.33 187.5,-466.33 187.5,-470.17 183.67,-474 179.83,-474"/>
<text text-anchor="middle" x="128" y="-458.8" font-family="Arial" font-size="14.00" fill="#cfffac">amd/circular/c.js</text>
</g>
<!-- amd/circular/d.js -->
<g id="node11" class="node">
<title>amd/circular/d.js</title>
<path fill="none" stroke="#cfffac" d="M179.83,-515C179.83,-515 76.17,-515 76.17,-515 72.33,-515 68.5,-511.17 68.5,-507.33 68.5,-507.33 68.5,-499.67 68.5,-499.67 68.5,-495.83 72.33,-492 76.17,-492 76.17,-492 179.83,-492 179.83,-492 183.67,-492 187.5,-495.83 187.5,-499.67 187.5,-499.67 187.5,-507.33 187.5,-507.33 187.5,-511.17 183.67,-515 179.83,-515"/>
<text text-anchor="middle" x="128" y="-499.8" font-family="Arial" font-size="14.00" fill="#cfffac">amd/circular/d.js</text>
</g>
<!-- amd/circular/e.js -->
<g id="node12" class="node">
<title>amd/circular/e.js</title>
<path fill="none" stroke="#cfffac" d="M179.83,-556C179.83,-556 76.17,-556 76.17,-556 72.33,-556 68.5,-552.17 68.5,-548.33 68.5,-548.33 68.5,-540.67 68.5,-540.67 68.5,-536.83 72.33,-533 76.17,-533 76.17,-533 179.83,-533 179.83,-533 183.67,-533 187.5,-536.83 187.5,-540.67 187.5,-540.67 187.5,-548.33 187.5,-548.33 187.5,-552.17 183.67,-556 179.83,-556"/>
<text text-anchor="middle" x="128" y="-540.8" font-family="Arial" font-size="14.00" fill="#cfffac">amd/circular/e.js</text>
</g>
<!-- amd/circular/f.js -->
<g id="node13" class="node">
<title>amd/circular/f.js</title>
<path fill="none" stroke="#cfffac" d="M178.33,-597C178.33,-597 77.67,-597 77.67,-597 73.83,-597 70,-593.17 70,-589.33 70,-589.33 70,-581.67 70,-581.67 70,-577.83 73.83,-574 77.67,-574 77.67,-574 178.33,-574 178.33,-574 182.17,-574 186,-577.83 186,-581.67 186,-581.67 186,-589.33 186,-589.33 186,-593.17 182.17,-597 178.33,-597"/>
<text text-anchor="middle" x="128" y="-581.8" font-family="Arial" font-size="14.00" fill="#cfffac">amd/circular/f.js</text>
</g>
<!-- amd/circular/g.js -->
<g id="node14" class="node">
<title>amd/circular/g.js</title>
<path fill="none" stroke="#cfffac" d="M179.83,-638C179.83,-638 76.17,-638 76.17,-638 72.33,-638 68.5,-634.17 68.5,-630.33 68.5,-630.33 68.5,-622.67 68.5,-622.67 68.5,-618.83 72.33,-615 76.17,-615 76.17,-615 179.83,-615 179.83,-615 183.67,-615 187.5,-618.83 187.5,-622.67 187.5,-622.67 187.5,-630.33 187.5,-630.33 187.5,-634.17 183.67,-638 179.83,-638"/>
<text text-anchor="middle" x="128" y="-622.8" font-family="Arial" font-size="14.00" fill="#cfffac">amd/circular/g.js</text>
</g>
<!-- amd/circular/h.js -->
<g id="node15" class="node">
<title>amd/circular/h.js</title>
<path fill="none" stroke="#cfffac" d="M179.83,-679C179.83,-679 76.17,-679 76.17,-679 72.33,-679 68.5,-675.17 68.5,-671.33 68.5,-671.33 68.5,-663.67 68.5,-663.67 68.5,-659.83 72.33,-656 76.17,-656 76.17,-656 179.83,-656 179.83,-656 183.67,-656 187.5,-659.83 187.5,-663.67 187.5,-663.67 187.5,-671.33 187.5,-671.33 187.5,-675.17 183.67,-679 179.83,-679"/>
<text text-anchor="middle" x="128" y="-663.8" font-family="Arial" font-size="14.00" fill="#cfffac">amd/circular/h.js</text>
</g>
<!-- amd/circular/main.js -->
<g id="node16" class="node">
<title>amd/circular/main.js</title>
<path fill="none" stroke="#cfffac" d="M190.83,-720C190.83,-720 65.17,-720 65.17,-720 61.33,-720 57.5,-716.17 57.5,-712.33 57.5,-712.33 57.5,-704.67 57.5,-704.67 57.5,-700.83 61.33,-697 65.17,-697 65.17,-697 190.83,-697 190.83,-697 194.67,-697 198.5,-700.83 198.5,-704.67 198.5,-704.67 198.5,-712.33 198.5,-712.33 198.5,-716.17 194.67,-720 190.83,-720"/>
<text text-anchor="middle" x="128" y="-704.8" font-family="Arial" font-size="14.00" fill="#cfffac">amd/circular/main.js</text>
</g>
<!-- amd/circularAlias/config.js -->
<g id="node17" class="node">
<title>amd/circularAlias/config.js</title>
<path fill="none" stroke="#cfffac" d="M210.83,-761C210.83,-761 45.17,-761 45.17,-761 41.33,-761 37.5,-757.17 37.5,-753.33 37.5,-753.33 37.5,-745.67 37.5,-745.67 37.5,-741.83 41.33,-738 45.17,-738 45.17,-738 210.83,-738 210.83,-738 214.67,-738 218.5,-741.83 218.5,-745.67 218.5,-745.67 218.5,-753.33 218.5,-753.33 218.5,-757.17 214.67,-761 210.83,-761"/>
<text text-anchor="middle" x="128" y="-745.8" font-family="Arial" font-size="14.00" fill="#cfffac">amd/circularAlias/config.js</text>
</g>
<!-- amd/circularAlias/dos.js -->
<g id="node18" class="node">
<title>amd/circularAlias/dos.js</title>
<path fill="none" stroke="#cfffac" d="M203.33,-802C203.33,-802 52.67,-802 52.67,-802 48.83,-802 45,-798.17 45,-794.33 45,-794.33 45,-786.67 45,-786.67 45,-782.83 48.83,-779 52.67,-779 52.67,-779 203.33,-779 203.33,-779 207.17,-779 211,-782.83 211,-786.67 211,-786.67 211,-794.33 211,-794.33 211,-798.17 207.17,-802 203.33,-802"/>
<text text-anchor="middle" x="128" y="-786.8" font-family="Arial" font-size="14.00" fill="#cfffac">amd/circularAlias/dos.js</text>
</g>
<!-- amd/circularAlias/x86.js -->
<g id="node19" class="node">
<title>amd/circularAlias/x86.js</title>
<path fill="none" stroke="#cfffac" d="M202.83,-843C202.83,-843 53.17,-843 53.17,-843 49.33,-843 45.5,-839.17 45.5,-835.33 45.5,-835.33 45.5,-827.67 45.5,-827.67 45.5,-823.83 49.33,-820 53.17,-820 53.17,-820 202.83,-820 202.83,-820 206.67,-820 210.5,-823.83 210.5,-827.67 210.5,-827.67 210.5,-835.33 210.5,-835.33 210.5,-839.17 206.67,-843 202.83,-843"/>
<text text-anchor="middle" x="128" y="-827.8" font-family="Arial" font-size="14.00" fill="#cfffac">amd/circularAlias/x86.js</text>
</g>
<!-- amd/circularRelative/a.js -->
<g id="node20" class="node">
<title>amd/circularRelative/a.js</title>
<path fill="none" stroke="#ff6c60" d="M205.33,-884C205.33,-884 50.67,-884 50.67,-884 46.83,-884 43,-880.17 43,-876.33 43,-876.33 43,-868.67 43,-868.67 43,-864.83 46.83,-861 50.67,-861 50.67,-861 205.33,-861 205.33,-861 209.17,-861 213,-864.83 213,-868.67 213,-868.67 213,-876.33 213,-876.33 213,-880.17 209.17,-884 205.33,-884"/>
<text text-anchor="middle" x="128" y="-868.8" font-family="Arial" font-size="14.00" fill="#ff6c60">amd/circularRelative/a.js</text>
</g>
<!-- amd/circularRelative/foo/b.js -->
<g id="node21" class="node">
<title>amd/circularRelative/foo/b.js</title>
<path fill="none" stroke="#ff6c60" d="M479.33,-884C479.33,-884 299.67,-884 299.67,-884 295.83,-884 292,-880.17 292,-876.33 292,-876.33 292,-868.67 292,-868.67 292,-864.83 295.83,-861 299.67,-861 299.67,-861 479.33,-861 479.33,-861 483.17,-861 487,-864.83 487,-868.67 487,-868.67 487,-876.33 487,-876.33 487,-880.17 483.17,-884 479.33,-884"/>
<text text-anchor="middle" x="389.5" y="-868.8" font-family="Arial" font-size="14.00" fill="#ff6c60">amd/circularRelative/foo/b.js</text>
</g>
<!-- amd/circularRelative/a.js&#45;&gt;amd/circularRelative/foo/b.js -->
<g id="edge7" class="edge">
<title>amd/circularRelative/a.js&#45;&gt;amd/circularRelative/foo/b.js</title>
<path fill="none" stroke="#757575" d="M213.25,-866.13C235.04,-865.75 258.79,-865.65 281.56,-865.84"/>
<polygon fill="#757575" stroke="#757575" points="281.57,-869.34 291.6,-865.95 281.64,-862.34 281.57,-869.34"/>
</g>
<!-- amd/circularRelative/foo/b.js&#45;&gt;amd/circularRelative/a.js -->
<g id="edge8" class="edge">
<title>amd/circularRelative/foo/b.js&#45;&gt;amd/circularRelative/a.js</title>
<path fill="none" stroke="#757575" d="M291.6,-879.05C269.28,-879.33 245.56,-879.31 223.34,-879.02"/>
<polygon fill="#757575" stroke="#757575" points="223.3,-875.52 213.25,-878.87 223.2,-882.52 223.3,-875.52"/>
</g>
<!-- amd/nested/a.js -->
<g id="node22" class="node">
<title>amd/nested/a.js</title>
<path fill="none" stroke="#cfffac" d="M178.83,-925C178.83,-925 77.17,-925 77.17,-925 73.33,-925 69.5,-921.17 69.5,-917.33 69.5,-917.33 69.5,-909.67 69.5,-909.67 69.5,-905.83 73.33,-902 77.17,-902 77.17,-902 178.83,-902 178.83,-902 182.67,-902 186.5,-905.83 186.5,-909.67 186.5,-909.67 186.5,-917.33 186.5,-917.33 186.5,-921.17 182.67,-925 178.83,-925"/>
<text text-anchor="middle" x="128" y="-909.8" font-family="Arial" font-size="14.00" fill="#cfffac">amd/nested/a.js</text>
</g>
<!-- amd/nested/b.js -->
<g id="node23" class="node">
<title>amd/nested/b.js</title>
<path fill="none" stroke="#cfffac" d="M179.33,-966C179.33,-966 76.67,-966 76.67,-966 72.83,-966 69,-962.17 69,-958.33 69,-958.33 69,-950.67 69,-950.67 69,-946.83 72.83,-943 76.67,-943 76.67,-943 179.33,-943 179.33,-943 183.17,-943 187,-946.83 187,-950.67 187,-950.67 187,-958.33 187,-958.33 187,-962.17 183.17,-966 179.33,-966"/>
<text text-anchor="middle" x="128" y="-950.8" font-family="Arial" font-size="14.00" fill="#cfffac">amd/nested/b.js</text>
</g>
<!-- amd/nested/main.js -->
<g id="node24" class="node">
<title>amd/nested/main.js</title>
<path fill="none" stroke="#cfffac" d="M190.33,-1007C190.33,-1007 65.67,-1007 65.67,-1007 61.83,-1007 58,-1003.17 58,-999.33 58,-999.33 58,-991.67 58,-991.67 58,-987.83 61.83,-984 65.67,-984 65.67,-984 190.33,-984 190.33,-984 194.17,-984 198,-987.83 198,-991.67 198,-991.67 198,-999.33 198,-999.33 198,-1003.17 194.17,-1007 190.33,-1007"/>
<text text-anchor="middle" x="128" y="-991.8" font-family="Arial" font-size="14.00" fill="#cfffac">amd/nested/main.js</text>
</g>
<!-- amd/ok/a.js -->
<g id="node25" class="node">
<title>amd/ok/a.js</title>
<path fill="none" stroke="#cfffac" d="M164.83,-1048C164.83,-1048 91.17,-1048 91.17,-1048 87.33,-1048 83.5,-1044.17 83.5,-1040.33 83.5,-1040.33 83.5,-1032.67 83.5,-1032.67 83.5,-1028.83 87.33,-1025 91.17,-1025 91.17,-1025 164.83,-1025 164.83,-1025 168.67,-1025 172.5,-1028.83 172.5,-1032.67 172.5,-1032.67 172.5,-1040.33 172.5,-1040.33 172.5,-1044.17 168.67,-1048 164.83,-1048"/>
<text text-anchor="middle" x="128" y="-1032.8" font-family="Arial" font-size="14.00" fill="#cfffac">amd/ok/a.js</text>
</g>
<!-- amd/ok/d.js -->
<g id="node26" class="node">
<title>amd/ok/d.js</title>
<path fill="none" stroke="#cfffac" d="M164.83,-1089C164.83,-1089 91.17,-1089 91.17,-1089 87.33,-1089 83.5,-1085.17 83.5,-1081.33 83.5,-1081.33 83.5,-1073.67 83.5,-1073.67 83.5,-1069.83 87.33,-1066 91.17,-1066 91.17,-1066 164.83,-1066 164.83,-1066 168.67,-1066 172.5,-1069.83 172.5,-1073.67 172.5,-1073.67 172.5,-1081.33 172.5,-1081.33 172.5,-1085.17 168.67,-1089 164.83,-1089"/>
<text text-anchor="middle" x="128" y="-1073.8" font-family="Arial" font-size="14.00" fill="#cfffac">amd/ok/d.js</text>
</g>
<!-- amd/ok/e.js -->
<g id="node27" class="node">
<title>amd/ok/e.js</title>
<path fill="none" stroke="#cfffac" d="M164.83,-1130C164.83,-1130 91.17,-1130 91.17,-1130 87.33,-1130 83.5,-1126.17 83.5,-1122.33 83.5,-1122.33 83.5,-1114.67 83.5,-1114.67 83.5,-1110.83 87.33,-1107 91.17,-1107 91.17,-1107 164.83,-1107 164.83,-1107 168.67,-1107 172.5,-1110.83 172.5,-1114.67 172.5,-1114.67 172.5,-1122.33 172.5,-1122.33 172.5,-1126.17 168.67,-1130 164.83,-1130"/>
<text text-anchor="middle" x="128" y="-1114.8" font-family="Arial" font-size="14.00" fill="#cfffac">amd/ok/e.js</text>
</g>
<!-- amd/ok/sub/b.js -->
<g id="node28" class="node">
<title>amd/ok/sub/b.js</title>
<path fill="none" stroke="#cfffac" d="M178.33,-1171C178.33,-1171 77.67,-1171 77.67,-1171 73.83,-1171 70,-1167.17 70,-1163.33 70,-1163.33 70,-1155.67 70,-1155.67 70,-1151.83 73.83,-1148 77.67,-1148 77.67,-1148 178.33,-1148 178.33,-1148 182.17,-1148 186,-1151.83 186,-1155.67 186,-1155.67 186,-1163.33 186,-1163.33 186,-1167.17 182.17,-1171 178.33,-1171"/>
<text text-anchor="middle" x="128" y="-1155.8" font-family="Arial" font-size="14.00" fill="#cfffac">amd/ok/sub/b.js</text>
</g>
<!-- amd/ok/sub/c.js -->
<g id="node29" class="node">
<title>amd/ok/sub/c.js</title>
<path fill="none" stroke="#cfffac" d="M178.33,-1212C178.33,-1212 77.67,-1212 77.67,-1212 73.83,-1212 70,-1208.17 70,-1204.33 70,-1204.33 70,-1196.67 70,-1196.67 70,-1192.83 73.83,-1189 77.67,-1189 77.67,-1189 178.33,-1189 178.33,-1189 182.17,-1189 186,-1192.83 186,-1196.67 186,-1196.67 186,-1204.33 186,-1204.33 186,-1208.17 182.17,-1212 178.33,-1212"/>
<text text-anchor="middle" x="128" y="-1196.8" font-family="Arial" font-size="14.00" fill="#cfffac">amd/ok/sub/c.js</text>
</g>
<!-- amd/plugin.js -->
<g id="node30" class="node">
<title>amd/plugin.js</title>
<path fill="none" stroke="#cfffac" d="M170.33,-1253C170.33,-1253 85.67,-1253 85.67,-1253 81.83,-1253 78,-1249.17 78,-1245.33 78,-1245.33 78,-1237.67 78,-1237.67 78,-1233.83 81.83,-1230 85.67,-1230 85.67,-1230 170.33,-1230 170.33,-1230 174.17,-1230 178,-1233.83 178,-1237.67 178,-1237.67 178,-1245.33 178,-1245.33 178,-1249.17 174.17,-1253 170.33,-1253"/>
<text text-anchor="middle" x="128" y="-1237.8" font-family="Arial" font-size="14.00" fill="#cfffac">amd/plugin.js</text>
</g>
<!-- amd/requirejs/a.js -->
<g id="node31" class="node">
<title>amd/requirejs/a.js</title>
<path fill="none" stroke="#cfffac" d="M184.33,-1294C184.33,-1294 71.67,-1294 71.67,-1294 67.83,-1294 64,-1290.17 64,-1286.33 64,-1286.33 64,-1278.67 64,-1278.67 64,-1274.83 67.83,-1271 71.67,-1271 71.67,-1271 184.33,-1271 184.33,-1271 188.17,-1271 192,-1274.83 192,-1278.67 192,-1278.67 192,-1286.33 192,-1286.33 192,-1290.17 188.17,-1294 184.33,-1294"/>
<text text-anchor="middle" x="128" y="-1278.8" font-family="Arial" font-size="14.00" fill="#cfffac">amd/requirejs/a.js</text>
</g>
<!-- amd/requirejs/config.js -->
<g id="node32" class="node">
<title>amd/requirejs/config.js</title>
<path fill="none" stroke="#cfffac" d="M200.33,-1335C200.33,-1335 55.67,-1335 55.67,-1335 51.83,-1335 48,-1331.17 48,-1327.33 48,-1327.33 48,-1319.67 48,-1319.67 48,-1315.83 51.83,-1312 55.67,-1312 55.67,-1312 200.33,-1312 200.33,-1312 204.17,-1312 208,-1315.83 208,-1319.67 208,-1319.67 208,-1327.33 208,-1327.33 208,-1331.17 204.17,-1335 200.33,-1335"/>
<text text-anchor="middle" x="128" y="-1319.8" font-family="Arial" font-size="14.00" fill="#cfffac">amd/requirejs/config.js</text>
</g>
<!-- amd/requirejs/orphans/a.js -->
<g id="node33" class="node">
<title>amd/requirejs/orphans/a.js</title>
<path fill="none" stroke="#cfffac" d="M211.83,-1376C211.83,-1376 44.17,-1376 44.17,-1376 40.33,-1376 36.5,-1372.17 36.5,-1368.33 36.5,-1368.33 36.5,-1360.67 36.5,-1360.67 36.5,-1356.83 40.33,-1353 44.17,-1353 44.17,-1353 211.83,-1353 211.83,-1353 215.67,-1353 219.5,-1356.83 219.5,-1360.67 219.5,-1360.67 219.5,-1368.33 219.5,-1368.33 219.5,-1372.17 215.67,-1376 211.83,-1376"/>
<text text-anchor="middle" x="128" y="-1360.8" font-family="Arial" font-size="14.00" fill="#cfffac">amd/requirejs/orphans/a.js</text>
</g>
<!-- amd/requirejs/orphans/b.js -->
<g id="node34" class="node">
<title>amd/requirejs/orphans/b.js</title>
<path fill="none" stroke="#cfffac" d="M212.33,-1417C212.33,-1417 43.67,-1417 43.67,-1417 39.83,-1417 36,-1413.17 36,-1409.33 36,-1409.33 36,-1401.67 36,-1401.67 36,-1397.83 39.83,-1394 43.67,-1394 43.67,-1394 212.33,-1394 212.33,-1394 216.17,-1394 220,-1397.83 220,-1401.67 220,-1401.67 220,-1409.33 220,-1409.33 220,-1413.17 216.17,-1417 212.33,-1417"/>
<text text-anchor="middle" x="128" y="-1401.8" font-family="Arial" font-size="14.00" fill="#cfffac">amd/requirejs/orphans/b.js</text>
</g>
<!-- amd/requirejs/orphans/c.js -->
<g id="node35" class="node">
<title>amd/requirejs/orphans/c.js</title>
<path fill="none" stroke="#cfffac" d="M211.83,-1458C211.83,-1458 44.17,-1458 44.17,-1458 40.33,-1458 36.5,-1454.17 36.5,-1450.33 36.5,-1450.33 36.5,-1442.67 36.5,-1442.67 36.5,-1438.83 40.33,-1435 44.17,-1435 44.17,-1435 211.83,-1435 211.83,-1435 215.67,-1435 219.5,-1438.83 219.5,-1442.67 219.5,-1442.67 219.5,-1450.33 219.5,-1450.33 219.5,-1454.17 215.67,-1458 211.83,-1458"/>
<text text-anchor="middle" x="128" y="-1442.8" font-family="Arial" font-size="14.00" fill="#cfffac">amd/requirejs/orphans/c.js</text>
</g>
<!-- amd/requirejs/vendor/baz.js -->
<g id="node36" class="node">
<title>amd/requirejs/vendor/baz.js</title>
<path fill="none" stroke="#cfffac" d="M215.83,-1499C215.83,-1499 40.17,-1499 40.17,-1499 36.33,-1499 32.5,-1495.17 32.5,-1491.33 32.5,-1491.33 32.5,-1483.67 32.5,-1483.67 32.5,-1479.83 36.33,-1476 40.17,-1476 40.17,-1476 215.83,-1476 215.83,-1476 219.67,-1476 223.5,-1479.83 223.5,-1483.67 223.5,-1483.67 223.5,-1491.33 223.5,-1491.33 223.5,-1495.17 219.67,-1499 215.83,-1499"/>
<text text-anchor="middle" x="128" y="-1483.8" font-family="Arial" font-size="14.00" fill="#cfffac">amd/requirejs/vendor/baz.js</text>
</g>
<!-- amd/requirejs/vendor/jquery&#45;2.0.3.js -->
<g id="node37" class="node">
<title>amd/requirejs/vendor/jquery&#45;2.0.3.js</title>
<path fill="none" stroke="#cfffac" d="M241.83,-1540C241.83,-1540 14.17,-1540 14.17,-1540 10.33,-1540 6.5,-1536.17 6.5,-1532.33 6.5,-1532.33 6.5,-1524.67 6.5,-1524.67 6.5,-1520.83 10.33,-1517 14.17,-1517 14.17,-1517 241.83,-1517 241.83,-1517 245.67,-1517 249.5,-1520.83 249.5,-1524.67 249.5,-1524.67 249.5,-1532.33 249.5,-1532.33 249.5,-1536.17 245.67,-1540 241.83,-1540"/>
<text text-anchor="middle" x="128" y="-1524.8" font-family="Arial" font-size="14.00" fill="#cfffac">amd/requirejs/vendor/jquery&#45;2.0.3.js</text>
</g>
<!-- amd/requirejs/vendor/jquery.bar&#45;1.0.js -->
<g id="node38" class="node">
<title>amd/requirejs/vendor/jquery.bar&#45;1.0.js</title>
<path fill="none" stroke="#cfffac" d="M247.83,-1581C247.83,-1581 8.17,-1581 8.17,-1581 4.33,-1581 0.5,-1577.17 0.5,-1573.33 0.5,-1573.33 0.5,-1565.67 0.5,-1565.67 0.5,-1561.83 4.33,-1558 8.17,-1558 8.17,-1558 247.83,-1558 247.83,-1558 251.67,-1558 255.5,-1561.83 255.5,-1565.67 255.5,-1565.67 255.5,-1573.33 255.5,-1573.33 255.5,-1577.17 251.67,-1581 247.83,-1581"/>
<text text-anchor="middle" x="128" y="-1565.8" font-family="Arial" font-size="14.00" fill="#cfffac">amd/requirejs/vendor/jquery.bar&#45;1.0.js</text>
</g>
<!-- amd/requirejs/vendor/jquery.foo&#45;1.0.js -->
<g id="node39" class="node">
<title>amd/requirejs/vendor/jquery.foo&#45;1.0.js</title>
<path fill="none" stroke="#cfffac" d="M248.33,-1622C248.33,-1622 7.67,-1622 7.67,-1622 3.83,-1622 0,-1618.17 0,-1614.33 0,-1614.33 0,-1606.67 0,-1606.67 0,-1602.83 3.83,-1599 7.67,-1599 7.67,-1599 248.33,-1599 248.33,-1599 252.17,-1599 256,-1602.83 256,-1606.67 256,-1606.67 256,-1614.33 256,-1614.33 256,-1618.17 252.17,-1622 248.33,-1622"/>
<text text-anchor="middle" x="128" y="-1606.8" font-family="Arial" font-size="14.00" fill="#cfffac">amd/requirejs/vendor/jquery.foo&#45;1.0.js</text>
</g>
<!-- amd/requirejs/vendor/quux.js -->
<g id="node40" class="node">
<title>amd/requirejs/vendor/quux.js</title>
<path fill="none" stroke="#cfffac" d="M219.33,-1663C219.33,-1663 36.67,-1663 36.67,-1663 32.83,-1663 29,-1659.17 29,-1655.33 29,-1655.33 29,-1647.67 29,-1647.67 29,-1643.83 32.83,-1640 36.67,-1640 36.67,-1640 219.33,-1640 219.33,-1640 223.17,-1640 227,-1643.83 227,-1647.67 227,-1647.67 227,-1655.33 227,-1655.33 227,-1659.17 223.17,-1663 219.33,-1663"/>
<text text-anchor="middle" x="128" y="-1647.8" font-family="Arial" font-size="14.00" fill="#cfffac">amd/requirejs/vendor/quux.js</text>
</g>
<!-- api.js -->
<g id="node41" class="node">
<title>api.js</title>
<path fill="none" stroke="#c6c5fe" d="M147.33,-269C147.33,-269 108.67,-269 108.67,-269 104.83,-269 101,-265.17 101,-261.33 101,-261.33 101,-253.67 101,-253.67 101,-249.83 104.83,-246 108.67,-246 108.67,-246 147.33,-246 147.33,-246 151.17,-246 155,-249.83 155,-253.67 155,-253.67 155,-261.33 155,-261.33 155,-265.17 151.17,-269 147.33,-269"/>
<text text-anchor="middle" x="128" y="-253.8" font-family="Arial" font-size="14.00" fill="#c6c5fe">api.js</text>
</g>
<!-- api.js&#45;&gt;../lib/api.js -->
<g id="edge9" class="edge">
<title>api.js&#45;&gt;../lib/api.js</title>
<path fill="none" stroke="#757575" d="M155.05,-256.12C181.26,-254.06 222.49,-248.97 256,-236.5 297.59,-221.02 340.47,-191.96 365.79,-173.19"/>
<polygon fill="#757575" stroke="#757575" points="368.11,-175.82 373.99,-167.01 363.89,-170.23 368.11,-175.82"/>
</g>
<!-- cjs.js -->
<g id="node42" class="node">
<title>cjs.js</title>
<path fill="none" stroke="#c6c5fe" d="M147.33,-228C147.33,-228 108.67,-228 108.67,-228 104.83,-228 101,-224.17 101,-220.33 101,-220.33 101,-212.67 101,-212.67 101,-208.83 104.83,-205 108.67,-205 108.67,-205 147.33,-205 147.33,-205 151.17,-205 155,-208.83 155,-212.67 155,-212.67 155,-220.33 155,-220.33 155,-224.17 151.17,-228 147.33,-228"/>
<text text-anchor="middle" x="128" y="-212.8" font-family="Arial" font-size="14.00" fill="#c6c5fe">cjs.js</text>
</g>
<!-- cjs.js&#45;&gt;../lib/api.js -->
<g id="edge10" class="edge">
<title>cjs.js&#45;&gt;../lib/api.js</title>
<path fill="none" stroke="#757575" d="M155.46,-213.14C181.29,-209.62 221.61,-203.5 256,-195.5 285.96,-188.53 319.09,-178.53 344.72,-170.27"/>
<polygon fill="#757575" stroke="#757575" points="346.08,-173.51 354.51,-167.09 343.92,-166.85 346.08,-173.51"/>
</g>
<!-- cjs/a.js -->
<g id="node43" class="node">
<title>cjs/a.js</title>
<path fill="none" stroke="#c6c5fe" d="M150.33,-1704C150.33,-1704 105.67,-1704 105.67,-1704 101.83,-1704 98,-1700.17 98,-1696.33 98,-1696.33 98,-1688.67 98,-1688.67 98,-1684.83 101.83,-1681 105.67,-1681 105.67,-1681 150.33,-1681 150.33,-1681 154.17,-1681 158,-1684.83 158,-1688.67 158,-1688.67 158,-1696.33 158,-1696.33 158,-1700.17 154.17,-1704 150.33,-1704"/>
<text text-anchor="middle" x="128" y="-1688.8" font-family="Arial" font-size="14.00" fill="#c6c5fe">cjs/a.js</text>
</g>
<!-- cjs/b.js -->
<g id="node44" class="node">
<title>cjs/b.js</title>
<path fill="none" stroke="#c6c5fe" d="M412.33,-1724C412.33,-1724 366.67,-1724 366.67,-1724 362.83,-1724 359,-1720.17 359,-1716.33 359,-1716.33 359,-1708.67 359,-1708.67 359,-1704.83 362.83,-1701 366.67,-1701 366.67,-1701 412.33,-1701 412.33,-1701 416.17,-1701 420,-1704.83 420,-1708.67 420,-1708.67 420,-1716.33 420,-1716.33 420,-1720.17 416.17,-1724 412.33,-1724"/>
<text text-anchor="middle" x="389.5" y="-1708.8" font-family="Arial" font-size="14.00" fill="#c6c5fe">cjs/b.js</text>
</g>
<!-- cjs/a.js&#45;&gt;cjs/b.js -->
<g id="edge11" class="edge">
<title>cjs/a.js&#45;&gt;cjs/b.js</title>
<path fill="none" stroke="#757575" d="M158.01,-1694.74C204.63,-1698.33 296.31,-1705.39 348.91,-1709.45"/>
<polygon fill="#757575" stroke="#757575" points="348.64,-1712.94 358.88,-1710.22 349.18,-1705.96 348.64,-1712.94"/>
</g>
<!-- cjs/c.js -->
<g id="node45" class="node">
<title>cjs/c.js</title>
<path fill="none" stroke="#cfffac" d="M612.33,-1684C612.33,-1684 567.67,-1684 567.67,-1684 563.83,-1684 560,-1680.17 560,-1676.33 560,-1676.33 560,-1668.67 560,-1668.67 560,-1664.83 563.83,-1661 567.67,-1661 567.67,-1661 612.33,-1661 612.33,-1661 616.17,-1661 620,-1664.83 620,-1668.67 620,-1668.67 620,-1676.33 620,-1676.33 620,-1680.17 616.17,-1684 612.33,-1684"/>
<text text-anchor="middle" x="590" y="-1668.8" font-family="Arial" font-size="14.00" fill="#cfffac">cjs/c.js</text>
</g>
<!-- cjs/a.js&#45;&gt;cjs/c.js -->
<g id="edge12" class="edge">
<title>cjs/a.js&#45;&gt;cjs/c.js</title>
<path fill="none" stroke="#757575" d="M158.12,-1691.23C237.72,-1687.77 459,-1678.15 549.58,-1674.21"/>
<polygon fill="#757575" stroke="#757575" points="549.87,-1677.7 559.71,-1673.77 549.56,-1670.71 549.87,-1677.7"/>
</g>
<!-- cjs/b.js&#45;&gt;cjs/c.js -->
<g id="edge13" class="edge">
<title>cjs/b.js&#45;&gt;cjs/c.js</title>
<path fill="none" stroke="#757575" d="M420.22,-1706.51C454.62,-1699.58 511.42,-1688.13 549.51,-1680.46"/>
<polygon fill="#757575" stroke="#757575" points="550.62,-1683.81 559.73,-1678.4 549.23,-1676.94 550.62,-1683.81"/>
</g>
<!-- cjs/both.js -->
<g id="node46" class="node">
<title>cjs/both.js</title>
<path fill="none" stroke="#cfffac" d="M160.33,-1745C160.33,-1745 95.67,-1745 95.67,-1745 91.83,-1745 88,-1741.17 88,-1737.33 88,-1737.33 88,-1729.67 88,-1729.67 88,-1725.83 91.83,-1722 95.67,-1722 95.67,-1722 160.33,-1722 160.33,-1722 164.17,-1722 168,-1725.83 168,-1729.67 168,-1729.67 168,-1737.33 168,-1737.33 168,-1741.17 164.17,-1745 160.33,-1745"/>
<text text-anchor="middle" x="128" y="-1729.8" font-family="Arial" font-size="14.00" fill="#cfffac">cjs/both.js</text>
</g>
<!-- cjs/chained.js -->
<g id="node47" class="node">
<title>cjs/chained.js</title>
<path fill="none" stroke="#cfffac" d="M171.33,-1786C171.33,-1786 84.67,-1786 84.67,-1786 80.83,-1786 77,-1782.17 77,-1778.33 77,-1778.33 77,-1770.67 77,-1770.67 77,-1766.83 80.83,-1763 84.67,-1763 84.67,-1763 171.33,-1763 171.33,-1763 175.17,-1763 179,-1766.83 179,-1770.67 179,-1770.67 179,-1778.33 179,-1778.33 179,-1782.17 175.17,-1786 171.33,-1786"/>
<text text-anchor="middle" x="128" y="-1770.8" font-family="Arial" font-size="14.00" fill="#cfffac">cjs/chained.js</text>
</g>
<!-- cjs/circular/a.js -->
<g id="node48" class="node">
<title>cjs/circular/a.js</title>
<path fill="none" stroke="#ff6c60" d="M174.83,-1827C174.83,-1827 81.17,-1827 81.17,-1827 77.33,-1827 73.5,-1823.17 73.5,-1819.33 73.5,-1819.33 73.5,-1811.67 73.5,-1811.67 73.5,-1807.83 77.33,-1804 81.17,-1804 81.17,-1804 174.83,-1804 174.83,-1804 178.67,-1804 182.5,-1807.83 182.5,-1811.67 182.5,-1811.67 182.5,-1819.33 182.5,-1819.33 182.5,-1823.17 178.67,-1827 174.83,-1827"/>
<text text-anchor="middle" x="128" y="-1811.8" font-family="Arial" font-size="14.00" fill="#ff6c60">cjs/circular/a.js</text>
</g>
<!-- cjs/circular/b.js -->
<g id="node49" class="node">
<title>cjs/circular/b.js</title>
<path fill="none" stroke="#c6c5fe" d="M436.83,-1887C436.83,-1887 342.17,-1887 342.17,-1887 338.33,-1887 334.5,-1883.17 334.5,-1879.33 334.5,-1879.33 334.5,-1871.67 334.5,-1871.67 334.5,-1867.83 338.33,-1864 342.17,-1864 342.17,-1864 436.83,-1864 436.83,-1864 440.67,-1864 444.5,-1867.83 444.5,-1871.67 444.5,-1871.67 444.5,-1879.33 444.5,-1879.33 444.5,-1883.17 440.67,-1887 436.83,-1887"/>
<text text-anchor="middle" x="389.5" y="-1871.8" font-family="Arial" font-size="14.00" fill="#c6c5fe">cjs/circular/b.js</text>
</g>
<!-- cjs/circular/a.js&#45;&gt;cjs/circular/b.js -->
<g id="edge14" class="edge">
<title>cjs/circular/a.js&#45;&gt;cjs/circular/b.js</title>
<path fill="none" stroke="#757575" d="M179.03,-1827.07C221.75,-1836.95 283.3,-1851.18 328.63,-1861.66"/>
<polygon fill="#757575" stroke="#757575" points="328.09,-1865.12 338.62,-1863.97 329.66,-1858.3 328.09,-1865.12"/>
</g>
<!-- cjs/circular/c.js -->
<g id="node50" class="node">
<title>cjs/circular/c.js</title>
<path fill="none" stroke="#cfffac" d="M636.83,-1867C636.83,-1867 543.17,-1867 543.17,-1867 539.33,-1867 535.5,-1863.17 535.5,-1859.33 535.5,-1859.33 535.5,-1851.67 535.5,-1851.67 535.5,-1847.83 539.33,-1844 543.17,-1844 543.17,-1844 636.83,-1844 636.83,-1844 640.67,-1844 644.5,-1847.83 644.5,-1851.67 644.5,-1851.67 644.5,-1859.33 644.5,-1859.33 644.5,-1863.17 640.67,-1867 636.83,-1867"/>
<text text-anchor="middle" x="590" y="-1851.8" font-family="Arial" font-size="14.00" fill="#cfffac">cjs/circular/c.js</text>
</g>
<!-- cjs/circular/a.js&#45;&gt;cjs/circular/c.js -->
<g id="edge15" class="edge">
<title>cjs/circular/a.js&#45;&gt;cjs/circular/c.js</title>
<path fill="none" stroke="#757575" d="M182.67,-1820.17C267.9,-1827.58 433.88,-1842.01 525.11,-1849.94"/>
<polygon fill="#757575" stroke="#757575" points="525.05,-1853.45 535.32,-1850.83 525.66,-1846.48 525.05,-1853.45"/>
</g>
<!-- cjs/circular/d.js -->
<g id="node51" class="node">
<title>cjs/circular/d.js</title>
<path fill="none" stroke="#ff6c60" d="M436.83,-1807C436.83,-1807 342.17,-1807 342.17,-1807 338.33,-1807 334.5,-1803.17 334.5,-1799.33 334.5,-1799.33 334.5,-1791.67 334.5,-1791.67 334.5,-1787.83 338.33,-1784 342.17,-1784 342.17,-1784 436.83,-1784 436.83,-1784 440.67,-1784 444.5,-1787.83 444.5,-1791.67 444.5,-1791.67 444.5,-1799.33 444.5,-1799.33 444.5,-1803.17 440.67,-1807 436.83,-1807"/>
<text text-anchor="middle" x="389.5" y="-1791.8" font-family="Arial" font-size="14.00" fill="#ff6c60">cjs/circular/d.js</text>
</g>
<!-- cjs/circular/a.js&#45;&gt;cjs/circular/d.js -->
<g id="edge16" class="edge">
<title>cjs/circular/a.js&#45;&gt;cjs/circular/d.js</title>
<path fill="none" stroke="#757575" d="M182.77,-1805.76C223.86,-1801.17 280.66,-1796.69 324.16,-1794.54"/>
<polygon fill="#757575" stroke="#757575" points="324.53,-1798.02 334.35,-1794.07 324.2,-1791.03 324.53,-1798.02"/>
</g>
<!-- cjs/circular/b.js&#45;&gt;cjs/circular/c.js -->
<g id="edge17" class="edge">
<title>cjs/circular/b.js&#45;&gt;cjs/circular/c.js</title>
<path fill="none" stroke="#757575" d="M444.74,-1870.03C469.57,-1867.53 499.16,-1864.55 525.07,-1861.94"/>
<polygon fill="#757575" stroke="#757575" points="525.57,-1865.41 535.17,-1860.92 524.87,-1858.44 525.57,-1865.41"/>
</g>
<!-- cjs/circular/d.js&#45;&gt;cjs/circular/a.js -->
<g id="edge18" class="edge">
<title>cjs/circular/d.js&#45;&gt;cjs/circular/a.js</title>
<path fill="none" stroke="#757575" d="M334.35,-1805.28C293.17,-1809.87 236.36,-1814.35 192.94,-1816.48"/>
<polygon fill="#757575" stroke="#757575" points="192.6,-1812.99 182.77,-1816.95 192.92,-1819.99 192.6,-1812.99"/>
</g>
<!-- cjs/circular/foo.js -->
<g id="node52" class="node">
<title>cjs/circular/foo.js</title>
<path fill="none" stroke="#c6c5fe" d="M181.33,-1928C181.33,-1928 74.67,-1928 74.67,-1928 70.83,-1928 67,-1924.17 67,-1920.33 67,-1920.33 67,-1912.67 67,-1912.67 67,-1908.83 70.83,-1905 74.67,-1905 74.67,-1905 181.33,-1905 181.33,-1905 185.17,-1905 189,-1908.83 189,-1912.67 189,-1912.67 189,-1920.33 189,-1920.33 189,-1924.17 185.17,-1928 181.33,-1928"/>
<text text-anchor="middle" x="128" y="-1912.8" font-family="Arial" font-size="14.00" fill="#c6c5fe">cjs/circular/foo.js</text>
</g>
<!-- cjs/circular/foo.json -->
<g id="node53" class="node">
<title>cjs/circular/foo.json</title>
<path fill="none" stroke="#cfffac" d="M450.83,-1928C450.83,-1928 328.17,-1928 328.17,-1928 324.33,-1928 320.5,-1924.17 320.5,-1920.33 320.5,-1920.33 320.5,-1912.67 320.5,-1912.67 320.5,-1908.83 324.33,-1905 328.17,-1905 328.17,-1905 450.83,-1905 450.83,-1905 454.67,-1905 458.5,-1908.83 458.5,-1912.67 458.5,-1912.67 458.5,-1920.33 458.5,-1920.33 458.5,-1924.17 454.67,-1928 450.83,-1928"/>
<text text-anchor="middle" x="389.5" y="-1912.8" font-family="Arial" font-size="14.00" fill="#cfffac">cjs/circular/foo.json</text>
</g>
<!-- cjs/circular/foo.js&#45;&gt;cjs/circular/foo.json -->
<g id="edge19" class="edge">
<title>cjs/circular/foo.js&#45;&gt;cjs/circular/foo.json</title>
<path fill="none" stroke="#757575" d="M189.19,-1916.5C225.2,-1916.5 271.36,-1916.5 310.18,-1916.5"/>
<polygon fill="#757575" stroke="#757575" points="310.4,-1920 320.4,-1916.5 310.4,-1913 310.4,-1920"/>
</g>
<!-- cjs/core.js -->
<g id="node54" class="node">
<title>cjs/core.js</title>
<path fill="none" stroke="#cfffac" d="M160.83,-1969C160.83,-1969 95.17,-1969 95.17,-1969 91.33,-1969 87.5,-1965.17 87.5,-1961.33 87.5,-1961.33 87.5,-1953.67 87.5,-1953.67 87.5,-1949.83 91.33,-1946 95.17,-1946 95.17,-1946 160.83,-1946 160.83,-1946 164.67,-1946 168.5,-1949.83 168.5,-1953.67 168.5,-1953.67 168.5,-1961.33 168.5,-1961.33 168.5,-1965.17 164.67,-1969 160.83,-1969"/>
<text text-anchor="middle" x="128" y="-1953.8" font-family="Arial" font-size="14.00" fill="#cfffac">cjs/core.js</text>
</g>
<!-- cjs/error.js -->
<g id="node55" class="node">
<title>cjs/error.js</title>
<path fill="none" stroke="#cfffac" d="M161.83,-2010C161.83,-2010 94.17,-2010 94.17,-2010 90.33,-2010 86.5,-2006.17 86.5,-2002.33 86.5,-2002.33 86.5,-1994.67 86.5,-1994.67 86.5,-1990.83 90.33,-1987 94.17,-1987 94.17,-1987 161.83,-1987 161.83,-1987 165.67,-1987 169.5,-1990.83 169.5,-1994.67 169.5,-1994.67 169.5,-2002.33 169.5,-2002.33 169.5,-2006.17 165.67,-2010 161.83,-2010"/>
<text text-anchor="middle" x="128" y="-1994.8" font-family="Arial" font-size="14.00" fill="#cfffac">cjs/error.js</text>
</g>
<!-- cjs/missing.js -->
<g id="node56" class="node">
<title>cjs/missing.js</title>
<path fill="none" stroke="#c6c5fe" d="M432.33,-1644C432.33,-1644 346.67,-1644 346.67,-1644 342.83,-1644 339,-1640.17 339,-1636.33 339,-1636.33 339,-1628.67 339,-1628.67 339,-1624.83 342.83,-1621 346.67,-1621 346.67,-1621 432.33,-1621 432.33,-1621 436.17,-1621 440,-1624.83 440,-1628.67 440,-1628.67 440,-1636.33 440,-1636.33 440,-1640.17 436.17,-1644 432.33,-1644"/>
<text text-anchor="middle" x="389.5" y="-1628.8" font-family="Arial" font-size="14.00" fill="#c6c5fe">cjs/missing.js</text>
</g>
<!-- cjs/missing.js&#45;&gt;cjs/c.js -->
<g id="edge20" class="edge">
<title>cjs/missing.js&#45;&gt;cjs/c.js</title>
<path fill="none" stroke="#757575" d="M440.08,-1642.49C473.92,-1649.31 518.14,-1658.22 549.58,-1664.56"/>
<polygon fill="#757575" stroke="#757575" points="549.22,-1668.05 559.72,-1666.6 550.61,-1661.19 549.22,-1668.05"/>
</g>
<!-- cjs/multibase/1/a.js -->
<g id="node57" class="node">
<title>cjs/multibase/1/a.js</title>
<path fill="none" stroke="#cfffac" d="M188.83,-2051C188.83,-2051 67.17,-2051 67.17,-2051 63.33,-2051 59.5,-2047.17 59.5,-2043.33 59.5,-2043.33 59.5,-2035.67 59.5,-2035.67 59.5,-2031.83 63.33,-2028 67.17,-2028 67.17,-2028 188.83,-2028 188.83,-2028 192.67,-2028 196.5,-2031.83 196.5,-2035.67 196.5,-2035.67 196.5,-2043.33 196.5,-2043.33 196.5,-2047.17 192.67,-2051 188.83,-2051"/>
<text text-anchor="middle" x="128" y="-2035.8" font-family="Arial" font-size="14.00" fill="#cfffac">cjs/multibase/1/a.js</text>
</g>
<!-- cjs/multibase/2/b.js -->
<g id="node58" class="node">
<title>cjs/multibase/2/b.js</title>
<path fill="none" stroke="#cfffac" d="M188.83,-2092C188.83,-2092 67.17,-2092 67.17,-2092 63.33,-2092 59.5,-2088.17 59.5,-2084.33 59.5,-2084.33 59.5,-2076.67 59.5,-2076.67 59.5,-2072.83 63.33,-2069 67.17,-2069 67.17,-2069 188.83,-2069 188.83,-2069 192.67,-2069 196.5,-2072.83 196.5,-2076.67 196.5,-2076.67 196.5,-2084.33 196.5,-2084.33 196.5,-2088.17 192.67,-2092 188.83,-2092"/>
<text text-anchor="middle" x="128" y="-2076.8" font-family="Arial" font-size="14.00" fill="#cfffac">cjs/multibase/2/b.js</text>
</g>
<!-- cjs/nested.js -->
<g id="node59" class="node">
<title>cjs/nested.js</title>
<path fill="none" stroke="#cfffac" d="M168.33,-2133C168.33,-2133 87.67,-2133 87.67,-2133 83.83,-2133 80,-2129.17 80,-2125.33 80,-2125.33 80,-2117.67 80,-2117.67 80,-2113.83 83.83,-2110 87.67,-2110 87.67,-2110 168.33,-2110 168.33,-2110 172.17,-2110 176,-2113.83 176,-2117.67 176,-2117.67 176,-2125.33 176,-2125.33 176,-2129.17 172.17,-2133 168.33,-2133"/>
<text text-anchor="middle" x="128" y="-2117.8" font-family="Arial" font-size="14.00" fill="#cfffac">cjs/nested.js</text>
</g>
<!-- cjs/normal/a.js -->
<g id="node60" class="node">
<title>cjs/normal/a.js</title>
<path fill="none" stroke="#c6c5fe" d="M173.83,-2174C173.83,-2174 82.17,-2174 82.17,-2174 78.33,-2174 74.5,-2170.17 74.5,-2166.33 74.5,-2166.33 74.5,-2158.67 74.5,-2158.67 74.5,-2154.83 78.33,-2151 82.17,-2151 82.17,-2151 173.83,-2151 173.83,-2151 177.67,-2151 181.5,-2154.83 181.5,-2158.67 181.5,-2158.67 181.5,-2166.33 181.5,-2166.33 181.5,-2170.17 177.67,-2174 173.83,-2174"/>
<text text-anchor="middle" x="128" y="-2158.8" font-family="Arial" font-size="14.00" fill="#c6c5fe">cjs/normal/a.js</text>
</g>
<!-- cjs/normal/sub/b.js -->
<g id="node61" class="node">
<title>cjs/normal/sub/b.js</title>
<path fill="none" stroke="#c6c5fe" d="M448.83,-2174C448.83,-2174 330.17,-2174 330.17,-2174 326.33,-2174 322.5,-2170.17 322.5,-2166.33 322.5,-2166.33 322.5,-2158.67 322.5,-2158.67 322.5,-2154.83 326.33,-2151 330.17,-2151 330.17,-2151 448.83,-2151 448.83,-2151 452.67,-2151 456.5,-2154.83 456.5,-2158.67 456.5,-2158.67 456.5,-2166.33 456.5,-2166.33 456.5,-2170.17 452.67,-2174 448.83,-2174"/>
<text text-anchor="middle" x="389.5" y="-2158.8" font-family="Arial" font-size="14.00" fill="#c6c5fe">cjs/normal/sub/b.js</text>
</g>
<!-- cjs/normal/a.js&#45;&gt;cjs/normal/sub/b.js -->
<g id="edge21" class="edge">
<title>cjs/normal/a.js&#45;&gt;cjs/normal/sub/b.js</title>
<path fill="none" stroke="#757575" d="M181.51,-2162.5C219,-2162.5 270.01,-2162.5 312.02,-2162.5"/>
<polygon fill="#757575" stroke="#757575" points="312.21,-2166 322.21,-2162.5 312.21,-2159 312.21,-2166"/>
</g>
<!-- cjs/normal/sub/c.js -->
<g id="node63" class="node">
<title>cjs/normal/sub/c.js</title>
<path fill="none" stroke="#c6c5fe" d="M649.33,-2174C649.33,-2174 530.67,-2174 530.67,-2174 526.83,-2174 523,-2170.17 523,-2166.33 523,-2166.33 523,-2158.67 523,-2158.67 523,-2154.83 526.83,-2151 530.67,-2151 530.67,-2151 649.33,-2151 649.33,-2151 653.17,-2151 657,-2154.83 657,-2158.67 657,-2158.67 657,-2166.33 657,-2166.33 657,-2170.17 653.17,-2174 649.33,-2174"/>
<text text-anchor="middle" x="590" y="-2158.8" font-family="Arial" font-size="14.00" fill="#c6c5fe">cjs/normal/sub/c.js</text>
</g>
<!-- cjs/normal/sub/b.js&#45;&gt;cjs/normal/sub/c.js -->
<g id="edge22" class="edge">
<title>cjs/normal/sub/b.js&#45;&gt;cjs/normal/sub/c.js</title>
<path fill="none" stroke="#757575" d="M456.6,-2162.5C474.58,-2162.5 494.21,-2162.5 512.71,-2162.5"/>
<polygon fill="#757575" stroke="#757575" points="512.85,-2166 522.85,-2162.5 512.85,-2159 512.85,-2166"/>
</g>
<!-- cjs/normal/d.js -->
<g id="node62" class="node">
<title>cjs/normal/d.js</title>
<path fill="none" stroke="#cfffac" d="M792.33,-2153C792.33,-2153 700.67,-2153 700.67,-2153 696.83,-2153 693,-2149.17 693,-2145.33 693,-2145.33 693,-2137.67 693,-2137.67 693,-2133.83 696.83,-2130 700.67,-2130 700.67,-2130 792.33,-2130 792.33,-2130 796.17,-2130 800,-2133.83 800,-2137.67 800,-2137.67 800,-2145.33 800,-2145.33 800,-2149.17 796.17,-2153 792.33,-2153"/>
<text text-anchor="middle" x="746.5" y="-2137.8" font-family="Arial" font-size="14.00" fill="#cfffac">cjs/normal/d.js</text>
</g>
<!-- cjs/normal/sub/c.js&#45;&gt;cjs/normal/d.js -->
<g id="edge23" class="edge">
<title>cjs/normal/sub/c.js&#45;&gt;cjs/normal/d.js</title>
<path fill="none" stroke="#757575" d="M657.42,-2153.47C665.79,-2152.33 674.34,-2151.17 682.65,-2150.04"/>
<polygon fill="#757575" stroke="#757575" points="683.22,-2153.5 692.65,-2148.68 682.27,-2146.56 683.22,-2153.5"/>
</g>
<!-- cjs/npm.js -->
<g id="node64" class="node">
<title>cjs/npm.js</title>
<path fill="none" stroke="#c6c5fe" d="M622.33,-2133C622.33,-2133 557.67,-2133 557.67,-2133 553.83,-2133 550,-2129.17 550,-2125.33 550,-2125.33 550,-2117.67 550,-2117.67 550,-2113.83 553.83,-2110 557.67,-2110 557.67,-2110 622.33,-2110 622.33,-2110 626.17,-2110 630,-2113.83 630,-2117.67 630,-2117.67 630,-2125.33 630,-2125.33 630,-2129.17 626.17,-2133 622.33,-2133"/>
<text text-anchor="middle" x="590" y="-2117.8" font-family="Arial" font-size="14.00" fill="#c6c5fe">cjs/npm.js</text>
</g>
<!-- cjs/npm.js&#45;&gt;cjs/normal/d.js -->
<g id="edge24" class="edge">
<title>cjs/npm.js&#45;&gt;cjs/normal/d.js</title>
<path fill="none" stroke="#757575" d="M630.39,-2126.6C646.23,-2128.65 664.9,-2131.07 682.54,-2133.35"/>
<polygon fill="#757575" stroke="#757575" points="682.41,-2136.86 692.77,-2134.67 683.3,-2129.92 682.41,-2136.86"/>
</g>
<!-- cjs/strings.js -->
<g id="node65" class="node">
<title>cjs/strings.js</title>
<path fill="none" stroke="#cfffac" d="M167.83,-2215C167.83,-2215 88.17,-2215 88.17,-2215 84.33,-2215 80.5,-2211.17 80.5,-2207.33 80.5,-2207.33 80.5,-2199.67 80.5,-2199.67 80.5,-2195.83 84.33,-2192 88.17,-2192 88.17,-2192 167.83,-2192 167.83,-2192 171.67,-2192 175.5,-2195.83 175.5,-2199.67 175.5,-2199.67 175.5,-2207.33 175.5,-2207.33 175.5,-2211.17 171.67,-2215 167.83,-2215"/>
<text text-anchor="middle" x="128" y="-2199.8" font-family="Arial" font-size="14.00" fill="#cfffac">cjs/strings.js</text>
</g>
<!-- cjs/word.js -->
<g id="node66" class="node">
<title>cjs/word.js</title>
<path fill="none" stroke="#cfffac" d="M161.83,-2256C161.83,-2256 94.17,-2256 94.17,-2256 90.33,-2256 86.5,-2252.17 86.5,-2248.33 86.5,-2248.33 86.5,-2240.67 86.5,-2240.67 86.5,-2236.83 90.33,-2233 94.17,-2233 94.17,-2233 161.83,-2233 161.83,-2233 165.67,-2233 169.5,-2236.83 169.5,-2240.67 169.5,-2240.67 169.5,-2248.33 169.5,-2248.33 169.5,-2252.17 165.67,-2256 161.83,-2256"/>
<text text-anchor="middle" x="128" y="-2240.8" font-family="Arial" font-size="14.00" fill="#cfffac">cjs/word.js</text>
</g>
<!-- es6.js -->
<g id="node67" class="node">
<title>es6.js</title>
<path fill="none" stroke="#c6c5fe" d="M147.83,-187C147.83,-187 108.17,-187 108.17,-187 104.33,-187 100.5,-183.17 100.5,-179.33 100.5,-179.33 100.5,-171.67 100.5,-171.67 100.5,-167.83 104.33,-164 108.17,-164 108.17,-164 147.83,-164 147.83,-164 151.67,-164 155.5,-167.83 155.5,-171.67 155.5,-171.67 155.5,-179.33 155.5,-179.33 155.5,-183.17 151.67,-187 147.83,-187"/>
<text text-anchor="middle" x="128" y="-171.8" font-family="Arial" font-size="14.00" fill="#c6c5fe">es6.js</text>
</g>
<!-- es6.js&#45;&gt;../lib/api.js -->
<g id="edge25" class="edge">
<title>es6.js&#45;&gt;../lib/api.js</title>
<path fill="none" stroke="#757575" d="M155.79,-173.43C199.1,-170.1 285.12,-163.47 339.58,-159.27"/>
<polygon fill="#757575" stroke="#757575" points="339.99,-162.75 349.69,-158.49 339.45,-155.77 339.99,-162.75"/>
</g>
<!-- es6/absolute.js -->
<g id="node68" class="node">
<title>es6/absolute.js</title>
<path fill="none" stroke="#cfffac" d="M176.83,-2297C176.83,-2297 79.17,-2297 79.17,-2297 75.33,-2297 71.5,-2293.17 71.5,-2289.33 71.5,-2289.33 71.5,-2281.67 71.5,-2281.67 71.5,-2277.83 75.33,-2274 79.17,-2274 79.17,-2274 176.83,-2274 176.83,-2274 180.67,-2274 184.5,-2277.83 184.5,-2281.67 184.5,-2281.67 184.5,-2289.33 184.5,-2289.33 184.5,-2293.17 180.67,-2297 176.83,-2297"/>
<text text-anchor="middle" x="128" y="-2281.8" font-family="Arial" font-size="14.00" fill="#cfffac">es6/absolute.js</text>
</g>
<!-- es6/absolute/a.js -->
<g id="node69" class="node">
<title>es6/absolute/a.js</title>
<path fill="none" stroke="#cfffac" d="M182.33,-2338C182.33,-2338 73.67,-2338 73.67,-2338 69.83,-2338 66,-2334.17 66,-2330.33 66,-2330.33 66,-2322.67 66,-2322.67 66,-2318.83 69.83,-2315 73.67,-2315 73.67,-2315 182.33,-2315 182.33,-2315 186.17,-2315 190,-2318.83 190,-2322.67 190,-2322.67 190,-2330.33 190,-2330.33 190,-2334.17 186.17,-2338 182.33,-2338"/>
<text text-anchor="middle" x="128" y="-2322.8" font-family="Arial" font-size="14.00" fill="#cfffac">es6/absolute/a.js</text>
</g>
<!-- es6/absolute/b.js -->
<g id="node70" class="node">
<title>es6/absolute/b.js</title>
<path fill="none" stroke="#cfffac" d="M182.83,-2379C182.83,-2379 73.17,-2379 73.17,-2379 69.33,-2379 65.5,-2375.17 65.5,-2371.33 65.5,-2371.33 65.5,-2363.67 65.5,-2363.67 65.5,-2359.83 69.33,-2356 73.17,-2356 73.17,-2356 182.83,-2356 182.83,-2356 186.67,-2356 190.5,-2359.83 190.5,-2363.67 190.5,-2363.67 190.5,-2371.33 190.5,-2371.33 190.5,-2375.17 186.67,-2379 182.83,-2379"/>
<text text-anchor="middle" x="128" y="-2363.8" font-family="Arial" font-size="14.00" fill="#cfffac">es6/absolute/b.js</text>
</g>
<!-- es6/circular/a.js -->
<g id="node71" class="node">
<title>es6/circular/a.js</title>
<path fill="none" stroke="#ff6c60" d="M177.83,-2420C177.83,-2420 78.17,-2420 78.17,-2420 74.33,-2420 70.5,-2416.17 70.5,-2412.33 70.5,-2412.33 70.5,-2404.67 70.5,-2404.67 70.5,-2400.83 74.33,-2397 78.17,-2397 78.17,-2397 177.83,-2397 177.83,-2397 181.67,-2397 185.5,-2400.83 185.5,-2404.67 185.5,-2404.67 185.5,-2412.33 185.5,-2412.33 185.5,-2416.17 181.67,-2420 177.83,-2420"/>
<text text-anchor="middle" x="128" y="-2404.8" font-family="Arial" font-size="14.00" fill="#ff6c60">es6/circular/a.js</text>
</g>
<!-- es6/circular/b.js -->
<g id="node72" class="node">
<title>es6/circular/b.js</title>
<path fill="none" stroke="#ff6c60" d="M439.83,-2420C439.83,-2420 339.17,-2420 339.17,-2420 335.33,-2420 331.5,-2416.17 331.5,-2412.33 331.5,-2412.33 331.5,-2404.67 331.5,-2404.67 331.5,-2400.83 335.33,-2397 339.17,-2397 339.17,-2397 439.83,-2397 439.83,-2397 443.67,-2397 447.5,-2400.83 447.5,-2404.67 447.5,-2404.67 447.5,-2412.33 447.5,-2412.33 447.5,-2416.17 443.67,-2420 439.83,-2420"/>
<text text-anchor="middle" x="389.5" y="-2404.8" font-family="Arial" font-size="14.00" fill="#ff6c60">es6/circular/b.js</text>
</g>
<!-- es6/circular/a.js&#45;&gt;es6/circular/b.js -->
<g id="edge26" class="edge">
<title>es6/circular/a.js&#45;&gt;es6/circular/b.js</title>
<path fill="none" stroke="#757575" d="M185.63,-2408.5C225.44,-2408.5 278.9,-2408.5 320.94,-2408.5"/>
<polygon fill="#757575" stroke="#757575" points="321.1,-2412 331.1,-2408.5 321.1,-2405 321.1,-2412"/>
</g>
<!-- es6/circular/c.js -->
<g id="node73" class="node">
<title>es6/circular/c.js</title>
<path fill="none" stroke="#ff6c60" d="M639.83,-2400C639.83,-2400 540.17,-2400 540.17,-2400 536.33,-2400 532.5,-2396.17 532.5,-2392.33 532.5,-2392.33 532.5,-2384.67 532.5,-2384.67 532.5,-2380.83 536.33,-2377 540.17,-2377 540.17,-2377 639.83,-2377 639.83,-2377 643.67,-2377 647.5,-2380.83 647.5,-2384.67 647.5,-2384.67 647.5,-2392.33 647.5,-2392.33 647.5,-2396.17 643.67,-2400 639.83,-2400"/>
<text text-anchor="middle" x="590" y="-2384.8" font-family="Arial" font-size="14.00" fill="#ff6c60">es6/circular/c.js</text>
</g>
<!-- es6/circular/b.js&#45;&gt;es6/circular/c.js -->
<g id="edge27" class="edge">
<title>es6/circular/b.js&#45;&gt;es6/circular/c.js</title>
<path fill="none" stroke="#757575" d="M447.65,-2402.74C470.9,-2400.4 497.93,-2397.68 522.09,-2395.24"/>
<polygon fill="#757575" stroke="#757575" points="522.66,-2398.7 532.25,-2394.22 521.95,-2391.74 522.66,-2398.7"/>
</g>
<!-- es6/circular/c.js&#45;&gt;es6/circular/a.js -->
<g id="edge28" class="edge">
<title>es6/circular/c.js&#45;&gt;es6/circular/a.js</title>
<path fill="none" stroke="#757575" d="M532.35,-2387.85C517.59,-2387.7 501.7,-2387.57 487,-2387.5 400.33,-2387.08 378.49,-2381.95 292,-2387.5 260.29,-2389.53 225.32,-2393.77 195.93,-2397.91"/>
<polygon fill="#757575" stroke="#757575" points="195.18,-2394.48 185.78,-2399.37 196.18,-2401.41 195.18,-2394.48"/>
</g>
<!-- es6/error.js -->
<g id="node74" class="node">
<title>es6/error.js</title>
<path fill="none" stroke="#cfffac" d="M164.83,-2461C164.83,-2461 91.17,-2461 91.17,-2461 87.33,-2461 83.5,-2457.17 83.5,-2453.33 83.5,-2453.33 83.5,-2445.67 83.5,-2445.67 83.5,-2441.83 87.33,-2438 91.17,-2438 91.17,-2438 164.83,-2438 164.83,-2438 168.67,-2438 172.5,-2441.83 172.5,-2445.67 172.5,-2445.67 172.5,-2453.33 172.5,-2453.33 172.5,-2457.17 168.67,-2461 164.83,-2461"/>
<text text-anchor="middle" x="128" y="-2445.8" font-family="Arial" font-size="14.00" fill="#cfffac">es6/error.js</text>
</g>
<!-- es6/re&#45;export/a.js -->
<g id="node75" class="node">
<title>es6/re&#45;export/a.js</title>
<path fill="none" stroke="#cfffac" d="M645.83,-2502C645.83,-2502 534.17,-2502 534.17,-2502 530.33,-2502 526.5,-2498.17 526.5,-2494.33 526.5,-2494.33 526.5,-2486.67 526.5,-2486.67 526.5,-2482.83 530.33,-2479 534.17,-2479 534.17,-2479 645.83,-2479 645.83,-2479 649.67,-2479 653.5,-2482.83 653.5,-2486.67 653.5,-2486.67 653.5,-2494.33 653.5,-2494.33 653.5,-2498.17 649.67,-2502 645.83,-2502"/>
<text text-anchor="middle" x="590" y="-2486.8" font-family="Arial" font-size="14.00" fill="#cfffac">es6/re&#45;export/a.js</text>
</g>
<!-- es6/re&#45;export/b&#45;default.js -->
<g id="node76" class="node">
<title>es6/re&#45;export/b&#45;default.js</title>
<path fill="none" stroke="#c6c5fe" d="M469.33,-2543C469.33,-2543 309.67,-2543 309.67,-2543 305.83,-2543 302,-2539.17 302,-2535.33 302,-2535.33 302,-2527.67 302,-2527.67 302,-2523.83 305.83,-2520 309.67,-2520 309.67,-2520 469.33,-2520 469.33,-2520 473.17,-2520 477,-2523.83 477,-2527.67 477,-2527.67 477,-2535.33 477,-2535.33 477,-2539.17 473.17,-2543 469.33,-2543"/>
<text text-anchor="middle" x="389.5" y="-2527.8" font-family="Arial" font-size="14.00" fill="#c6c5fe">es6/re&#45;export/b&#45;default.js</text>
</g>
<!-- es6/re&#45;export/b&#45;default.js&#45;&gt;es6/re&#45;export/a.js -->
<g id="edge29" class="edge">
<title>es6/re&#45;export/b&#45;default.js&#45;&gt;es6/re&#45;export/a.js</title>
<path fill="none" stroke="#757575" d="M446.32,-2519.97C470.21,-2515.04 498.27,-2509.24 523.17,-2504.1"/>
<polygon fill="#757575" stroke="#757575" points="524.17,-2507.46 533.25,-2502.01 522.75,-2500.61 524.17,-2507.46"/>
</g>
<!-- es6/re&#45;export/b&#45;named.js -->
<g id="node77" class="node">
<title>es6/re&#45;export/b&#45;named.js</title>
<path fill="none" stroke="#c6c5fe" d="M469.83,-2502C469.83,-2502 309.17,-2502 309.17,-2502 305.33,-2502 301.5,-2498.17 301.5,-2494.33 301.5,-2494.33 301.5,-2486.67 301.5,-2486.67 301.5,-2482.83 305.33,-2479 309.17,-2479 309.17,-2479 469.83,-2479 469.83,-2479 473.67,-2479 477.5,-2482.83 477.5,-2486.67 477.5,-2486.67 477.5,-2494.33 477.5,-2494.33 477.5,-2498.17 473.67,-2502 469.83,-2502"/>
<text text-anchor="middle" x="389.5" y="-2486.8" font-family="Arial" font-size="14.00" fill="#c6c5fe">es6/re&#45;export/b&#45;named.js</text>
</g>
<!-- es6/re&#45;export/b&#45;named.js&#45;&gt;es6/re&#45;export/a.js -->
<g id="edge30" class="edge">
<title>es6/re&#45;export/b&#45;named.js&#45;&gt;es6/re&#45;export/a.js</title>
<path fill="none" stroke="#757575" d="M477.56,-2490.5C490.42,-2490.5 503.56,-2490.5 516.09,-2490.5"/>
<polygon fill="#757575" stroke="#757575" points="516.46,-2494 526.46,-2490.5 516.46,-2487 516.46,-2494"/>
</g>
<!-- es6/re&#45;export/b&#45;star.js -->
<g id="node78" class="node">
<title>es6/re&#45;export/b&#45;star.js</title>
<path fill="none" stroke="#c6c5fe" d="M459.33,-2461C459.33,-2461 319.67,-2461 319.67,-2461 315.83,-2461 312,-2457.17 312,-2453.33 312,-2453.33 312,-2445.67 312,-2445.67 312,-2441.83 315.83,-2438 319.67,-2438 319.67,-2438 459.33,-2438 459.33,-2438 463.17,-2438 467,-2441.83 467,-2445.67 467,-2445.67 467,-2453.33 467,-2453.33 467,-2457.17 463.17,-2461 459.33,-2461"/>
<text text-anchor="middle" x="389.5" y="-2445.8" font-family="Arial" font-size="14.00" fill="#c6c5fe">es6/re&#45;export/b&#45;star.js</text>
</g>
<!-- es6/re&#45;export/b&#45;star.js&#45;&gt;es6/re&#45;export/a.js -->
<g id="edge31" class="edge">
<title>es6/re&#45;export/b&#45;star.js&#45;&gt;es6/re&#45;export/a.js</title>
<path fill="none" stroke="#757575" d="M446.32,-2461.03C470.21,-2465.96 498.27,-2471.76 523.17,-2476.9"/>
<polygon fill="#757575" stroke="#757575" points="522.75,-2480.39 533.25,-2478.99 524.17,-2473.54 522.75,-2480.39"/>
</g>
<!-- es6/re&#45;export/c.js -->
<g id="node79" class="node">
<title>es6/re&#45;export/c.js</title>
<path fill="none" stroke="#c6c5fe" d="M183.83,-2502C183.83,-2502 72.17,-2502 72.17,-2502 68.33,-2502 64.5,-2498.17 64.5,-2494.33 64.5,-2494.33 64.5,-2486.67 64.5,-2486.67 64.5,-2482.83 68.33,-2479 72.17,-2479 72.17,-2479 183.83,-2479 183.83,-2479 187.67,-2479 191.5,-2482.83 191.5,-2486.67 191.5,-2486.67 191.5,-2494.33 191.5,-2494.33 191.5,-2498.17 187.67,-2502 183.83,-2502"/>
<text text-anchor="middle" x="128" y="-2486.8" font-family="Arial" font-size="14.00" fill="#c6c5fe">es6/re&#45;export/c.js</text>
</g>
<!-- es6/re&#45;export/c.js&#45;&gt;es6/re&#45;export/b&#45;default.js -->
<g id="edge32" class="edge">
<title>es6/re&#45;export/c.js&#45;&gt;es6/re&#45;export/b&#45;default.js</title>
<path fill="none" stroke="#757575" d="M191.66,-2500.36C212.17,-2503.58 235.06,-2507.19 256,-2510.5 272.1,-2513.04 289.3,-2515.77 305.79,-2518.38"/>
<polygon fill="#757575" stroke="#757575" points="305.53,-2521.88 315.95,-2519.99 306.62,-2514.97 305.53,-2521.88"/>
</g>
<!-- es6/re&#45;export/c.js&#45;&gt;es6/re&#45;export/b&#45;named.js -->
<g id="edge33" class="edge">
<title>es6/re&#45;export/c.js&#45;&gt;es6/re&#45;export/b&#45;named.js</title>
<path fill="none" stroke="#757575" d="M191.82,-2490.5C221.59,-2490.5 257.83,-2490.5 291.06,-2490.5"/>
<polygon fill="#757575" stroke="#757575" points="291.26,-2494 301.26,-2490.5 291.26,-2487 291.26,-2494"/>
</g>
<!-- es6/re&#45;export/c.js&#45;&gt;es6/re&#45;export/b&#45;star.js -->
<g id="edge34" class="edge">
<title>es6/re&#45;export/c.js&#45;&gt;es6/re&#45;export/b&#45;star.js</title>
<path fill="none" stroke="#757575" d="M191.82,-2480.58C225.96,-2475.18 268.61,-2468.44 305.46,-2462.62"/>
<polygon fill="#757575" stroke="#757575" points="306.36,-2466.02 315.69,-2461 305.27,-2459.11 306.36,-2466.02"/>
</g>
<!-- es6/webpack/src/sub/abs.js -->
<g id="node80" class="node">
<title>es6/webpack/src/sub/abs.js</title>
<path fill="none" stroke="#cfffac" d="M216.33,-2543C216.33,-2543 39.67,-2543 39.67,-2543 35.83,-2543 32,-2539.17 32,-2535.33 32,-2535.33 32,-2527.67 32,-2527.67 32,-2523.83 35.83,-2520 39.67,-2520 39.67,-2520 216.33,-2520 216.33,-2520 220.17,-2520 224,-2523.83 224,-2527.67 224,-2527.67 224,-2535.33 224,-2535.33 224,-2539.17 220.17,-2543 216.33,-2543"/>
<text text-anchor="middle" x="128" y="-2527.8" font-family="Arial" font-size="14.00" fill="#cfffac">es6/webpack/src/sub/abs.js</text>
</g>
<!-- es6/webpack/src/sub/index.js -->
<g id="node81" class="node">
<title>es6/webpack/src/sub/index.js</title>
<path fill="none" stroke="#c6c5fe" d="M221.83,-2584C221.83,-2584 34.17,-2584 34.17,-2584 30.33,-2584 26.5,-2580.17 26.5,-2576.33 26.5,-2576.33 26.5,-2568.67 26.5,-2568.67 26.5,-2564.83 30.33,-2561 34.17,-2561 34.17,-2561 221.83,-2561 221.83,-2561 225.67,-2561 229.5,-2564.83 229.5,-2568.67 229.5,-2568.67 229.5,-2576.33 229.5,-2576.33 229.5,-2580.17 225.67,-2584 221.83,-2584"/>
<text text-anchor="middle" x="128" y="-2568.8" font-family="Arial" font-size="14.00" fill="#c6c5fe">es6/webpack/src/sub/index.js</text>
</g>
<!-- es6/webpack/src/sub/rel.js -->
<g id="node82" class="node">
<title>es6/webpack/src/sub/rel.js</title>
<path fill="none" stroke="#cfffac" d="M474.33,-2584C474.33,-2584 304.67,-2584 304.67,-2584 300.83,-2584 297,-2580.17 297,-2576.33 297,-2576.33 297,-2568.67 297,-2568.67 297,-2564.83 300.83,-2561 304.67,-2561 304.67,-2561 474.33,-2561 474.33,-2561 478.17,-2561 482,-2564.83 482,-2568.67 482,-2568.67 482,-2576.33 482,-2576.33 482,-2580.17 478.17,-2584 474.33,-2584"/>
<text text-anchor="middle" x="389.5" y="-2568.8" font-family="Arial" font-size="14.00" fill="#cfffac">es6/webpack/src/sub/rel.js</text>
</g>
<!-- es6/webpack/src/sub/index.js&#45;&gt;es6/webpack/src/sub/rel.js -->
<g id="edge35" class="edge">
<title>es6/webpack/src/sub/index.js&#45;&gt;es6/webpack/src/sub/rel.js</title>
<path fill="none" stroke="#757575" d="M229.7,-2572.5C248.42,-2572.5 267.99,-2572.5 286.74,-2572.5"/>
<polygon fill="#757575" stroke="#757575" points="286.76,-2576 296.76,-2572.5 286.76,-2569 286.76,-2576"/>
</g>
<!-- es6/webpack/webpack.config.js -->
<g id="node83" class="node">
<title>es6/webpack/webpack.config.js</title>
<path fill="none" stroke="#cfffac" d="M229.33,-2625C229.33,-2625 26.67,-2625 26.67,-2625 22.83,-2625 19,-2621.17 19,-2617.33 19,-2617.33 19,-2609.67 19,-2609.67 19,-2605.83 22.83,-2602 26.67,-2602 26.67,-2602 229.33,-2602 229.33,-2602 233.17,-2602 237,-2605.83 237,-2609.67 237,-2609.67 237,-2617.33 237,-2617.33 237,-2621.17 233.17,-2625 229.33,-2625"/>
<text text-anchor="middle" x="128" y="-2609.8" font-family="Arial" font-size="14.00" fill="#cfffac">es6/webpack/webpack.config.js</text>
</g>
<!-- es7.js -->
<g id="node84" class="node">
<title>es7.js</title>
<path fill="none" stroke="#c6c5fe" d="M147.83,-146C147.83,-146 108.17,-146 108.17,-146 104.33,-146 100.5,-142.17 100.5,-138.33 100.5,-138.33 100.5,-130.67 100.5,-130.67 100.5,-126.83 104.33,-123 108.17,-123 108.17,-123 147.83,-123 147.83,-123 151.67,-123 155.5,-126.83 155.5,-130.67 155.5,-130.67 155.5,-138.33 155.5,-138.33 155.5,-142.17 151.67,-146 147.83,-146"/>
<text text-anchor="middle" x="128" y="-130.8" font-family="Arial" font-size="14.00" fill="#c6c5fe">es7.js</text>
</g>
<!-- es7.js&#45;&gt;../lib/api.js -->
<g id="edge36" class="edge">
<title>es7.js&#45;&gt;../lib/api.js</title>
<path fill="none" stroke="#757575" d="M155.79,-136.67C199.1,-140.17 285.12,-147.13 339.58,-151.54"/>
<polygon fill="#757575" stroke="#757575" points="339.44,-155.04 349.69,-152.36 340.01,-148.06 339.44,-155.04"/>
</g>
<!-- es7/async.js -->
<g id="node85" class="node">
<title>es7/async.js</title>
<path fill="none" stroke="#c6c5fe" d="M167.83,-2666C167.83,-2666 88.17,-2666 88.17,-2666 84.33,-2666 80.5,-2662.17 80.5,-2658.33 80.5,-2658.33 80.5,-2650.67 80.5,-2650.67 80.5,-2646.83 84.33,-2643 88.17,-2643 88.17,-2643 167.83,-2643 167.83,-2643 171.67,-2643 175.5,-2646.83 175.5,-2650.67 175.5,-2650.67 175.5,-2658.33 175.5,-2658.33 175.5,-2662.17 171.67,-2666 167.83,-2666"/>
<text text-anchor="middle" x="128" y="-2650.8" font-family="Arial" font-size="14.00" fill="#c6c5fe">es7/async.js</text>
</g>
<!-- es7/other.js -->
<g id="node86" class="node">
<title>es7/other.js</title>
<path fill="none" stroke="#cfffac" d="M427.33,-2666C427.33,-2666 351.67,-2666 351.67,-2666 347.83,-2666 344,-2662.17 344,-2658.33 344,-2658.33 344,-2650.67 344,-2650.67 344,-2646.83 347.83,-2643 351.67,-2643 351.67,-2643 427.33,-2643 427.33,-2643 431.17,-2643 435,-2646.83 435,-2650.67 435,-2650.67 435,-2658.33 435,-2658.33 435,-2662.17 431.17,-2666 427.33,-2666"/>
<text text-anchor="middle" x="389.5" y="-2650.8" font-family="Arial" font-size="14.00" fill="#cfffac">es7/other.js</text>
</g>
<!-- es7/async.js&#45;&gt;es7/other.js -->
<g id="edge37" class="edge">
<title>es7/async.js&#45;&gt;es7/other.js</title>
<path fill="none" stroke="#757575" d="M175.69,-2654.5C220.05,-2654.5 286.76,-2654.5 333.64,-2654.5"/>
<polygon fill="#757575" stroke="#757575" points="333.92,-2658 343.92,-2654.5 333.92,-2651 333.92,-2658"/>
</g>
<!-- flow.js -->
<g id="node87" class="node">
<title>flow.js</title>
<path fill="none" stroke="#c6c5fe" d="M148.33,-105C148.33,-105 107.67,-105 107.67,-105 103.83,-105 100,-101.17 100,-97.33 100,-97.33 100,-89.67 100,-89.67 100,-85.83 103.83,-82 107.67,-82 107.67,-82 148.33,-82 148.33,-82 152.17,-82 156,-85.83 156,-89.67 156,-89.67 156,-97.33 156,-97.33 156,-101.17 152.17,-105 148.33,-105"/>
<text text-anchor="middle" x="128" y="-89.8" font-family="Arial" font-size="14.00" fill="#c6c5fe">flow.js</text>
</g>
<!-- flow.js&#45;&gt;../lib/api.js -->
<g id="edge38" class="edge">
<title>flow.js&#45;&gt;../lib/api.js</title>
<path fill="none" stroke="#757575" d="M156.48,-96.61C182.36,-99.83 222.11,-105.51 256,-113.5 287.03,-120.82 321.32,-131.77 347.25,-140.65"/>
<polygon fill="#757575" stroke="#757575" points="346.15,-143.98 356.75,-143.95 348.45,-137.37 346.15,-143.98"/>
</g>
<!-- flow/cjs/calc.js -->
<g id="node88" class="node">
<title>flow/cjs/calc.js</title>
<path fill="none" stroke="#c6c5fe" d="M173.83,-2707C173.83,-2707 82.17,-2707 82.17,-2707 78.33,-2707 74.5,-2703.17 74.5,-2699.33 74.5,-2699.33 74.5,-2691.67 74.5,-2691.67 74.5,-2687.83 78.33,-2684 82.17,-2684 82.17,-2684 173.83,-2684 173.83,-2684 177.67,-2684 181.5,-2687.83 181.5,-2691.67 181.5,-2691.67 181.5,-2699.33 181.5,-2699.33 181.5,-2703.17 177.67,-2707 173.83,-2707"/>
<text text-anchor="middle" x="128" y="-2691.8" font-family="Arial" font-size="14.00" fill="#c6c5fe">flow/cjs/calc.js</text>
</g>
<!-- flow/cjs/geometry.js -->
<g id="node89" class="node">
<title>flow/cjs/geometry.js</title>
<path fill="none" stroke="#cfffac" d="M452.83,-2707C452.83,-2707 326.17,-2707 326.17,-2707 322.33,-2707 318.5,-2703.17 318.5,-2699.33 318.5,-2699.33 318.5,-2691.67 318.5,-2691.67 318.5,-2687.83 322.33,-2684 326.17,-2684 326.17,-2684 452.83,-2684 452.83,-2684 456.67,-2684 460.5,-2687.83 460.5,-2691.67 460.5,-2691.67 460.5,-2699.33 460.5,-2699.33 460.5,-2703.17 456.67,-2707 452.83,-2707"/>
<text text-anchor="middle" x="389.5" y="-2691.8" font-family="Arial" font-size="14.00" fill="#cfffac">flow/cjs/geometry.js</text>
</g>
<!-- flow/cjs/calc.js&#45;&gt;flow/cjs/geometry.js -->
<g id="edge39" class="edge">
<title>flow/cjs/calc.js&#45;&gt;flow/cjs/geometry.js</title>
<path fill="none" stroke="#757575" d="M181.51,-2695.5C217.91,-2695.5 267.05,-2695.5 308.31,-2695.5"/>
<polygon fill="#757575" stroke="#757575" points="308.35,-2699 318.35,-2695.5 308.35,-2692 308.35,-2699"/>
</g>
<!-- flow/cjs/math.js -->
<g id="node90" class="node">
<title>flow/cjs/math.js</title>
<path fill="none" stroke="#cfffac" d="M176.83,-2748C176.83,-2748 79.17,-2748 79.17,-2748 75.33,-2748 71.5,-2744.17 71.5,-2740.33 71.5,-2740.33 71.5,-2732.67 71.5,-2732.67 71.5,-2728.83 75.33,-2725 79.17,-2725 79.17,-2725 176.83,-2725 176.83,-2725 180.67,-2725 184.5,-2728.83 184.5,-2732.67 184.5,-2732.67 184.5,-2740.33 184.5,-2740.33 184.5,-2744.17 180.67,-2748 176.83,-2748"/>
<text text-anchor="middle" x="128" y="-2732.8" font-family="Arial" font-size="14.00" fill="#cfffac">flow/cjs/math.js</text>
</g>
<!-- flow/es/calc.js -->
<g id="node91" class="node">
<title>flow/es/calc.js</title>
<path fill="none" stroke="#c6c5fe" d="M172.83,-2789C172.83,-2789 83.17,-2789 83.17,-2789 79.33,-2789 75.5,-2785.17 75.5,-2781.33 75.5,-2781.33 75.5,-2773.67 75.5,-2773.67 75.5,-2769.83 79.33,-2766 83.17,-2766 83.17,-2766 172.83,-2766 172.83,-2766 176.67,-2766 180.5,-2769.83 180.5,-2773.67 180.5,-2773.67 180.5,-2781.33 180.5,-2781.33 180.5,-2785.17 176.67,-2789 172.83,-2789"/>
<text text-anchor="middle" x="128" y="-2773.8" font-family="Arial" font-size="14.00" fill="#c6c5fe">flow/es/calc.js</text>
</g>
<!-- flow/es/math.js -->
<g id="node92" class="node">
<title>flow/es/math.js</title>
<path fill="none" stroke="#cfffac" d="M436.83,-2789C436.83,-2789 342.17,-2789 342.17,-2789 338.33,-2789 334.5,-2785.17 334.5,-2781.33 334.5,-2781.33 334.5,-2773.67 334.5,-2773.67 334.5,-2769.83 338.33,-2766 342.17,-2766 342.17,-2766 436.83,-2766 436.83,-2766 440.67,-2766 444.5,-2769.83 444.5,-2773.67 444.5,-2773.67 444.5,-2781.33 444.5,-2781.33 444.5,-2785.17 440.67,-2789 436.83,-2789"/>
<text text-anchor="middle" x="389.5" y="-2773.8" font-family="Arial" font-size="14.00" fill="#cfffac">flow/es/math.js</text>
</g>
<!-- flow/es/calc.js&#45;&gt;flow/es/math.js -->
<g id="edge40" class="edge">
<title>flow/es/calc.js&#45;&gt;flow/es/math.js</title>
<path fill="none" stroke="#757575" d="M180.58,-2777.5C221.85,-2777.5 279.96,-2777.5 324.25,-2777.5"/>
<polygon fill="#757575" stroke="#757575" points="324.34,-2781 334.34,-2777.5 324.34,-2774 324.34,-2781"/>
</g>
<!-- git/.git_tmp/d.js -->
<g id="node93" class="node">
<title>git/.git_tmp/d.js</title>
<path fill="none" stroke="#cfffac" d="M176.83,-2830C176.83,-2830 79.17,-2830 79.17,-2830 75.33,-2830 71.5,-2826.17 71.5,-2822.33 71.5,-2822.33 71.5,-2814.67 71.5,-2814.67 71.5,-2810.83 75.33,-2807 79.17,-2807 79.17,-2807 176.83,-2807 176.83,-2807 180.67,-2807 184.5,-2810.83 184.5,-2814.67 184.5,-2814.67 184.5,-2822.33 184.5,-2822.33 184.5,-2826.17 180.67,-2830 176.83,-2830"/>
<text text-anchor="middle" x="128" y="-2814.8" font-family="Arial" font-size="14.00" fill="#cfffac">git/.git_tmp/d.js</text>
</g>
<!-- git/a.js -->
<g id="node94" class="node">
<title>git/a.js</title>
<path fill="none" stroke="#c6c5fe" d="M148.83,-2871C148.83,-2871 107.17,-2871 107.17,-2871 103.33,-2871 99.5,-2867.17 99.5,-2863.33 99.5,-2863.33 99.5,-2855.67 99.5,-2855.67 99.5,-2851.83 103.33,-2848 107.17,-2848 107.17,-2848 148.83,-2848 148.83,-2848 152.67,-2848 156.5,-2851.83 156.5,-2855.67 156.5,-2855.67 156.5,-2863.33 156.5,-2863.33 156.5,-2867.17 152.67,-2871 148.83,-2871"/>
<text text-anchor="middle" x="128" y="-2855.8" font-family="Arial" font-size="14.00" fill="#c6c5fe">git/a.js</text>
</g>
<!-- git/b.js -->
<g id="node95" class="node">
<title>git/b.js</title>
<path fill="none" stroke="#c6c5fe" d="M410.83,-2891C410.83,-2891 368.17,-2891 368.17,-2891 364.33,-2891 360.5,-2887.17 360.5,-2883.33 360.5,-2883.33 360.5,-2875.67 360.5,-2875.67 360.5,-2871.83 364.33,-2868 368.17,-2868 368.17,-2868 410.83,-2868 410.83,-2868 414.67,-2868 418.5,-2871.83 418.5,-2875.67 418.5,-2875.67 418.5,-2883.33 418.5,-2883.33 418.5,-2887.17 414.67,-2891 410.83,-2891"/>
<text text-anchor="middle" x="389.5" y="-2875.8" font-family="Arial" font-size="14.00" fill="#c6c5fe">git/b.js</text>
</g>
<!-- git/a.js&#45;&gt;git/b.js -->
<g id="edge41" class="edge">
<title>git/a.js&#45;&gt;git/b.js</title>
<path fill="none" stroke="#757575" d="M156.77,-2861.64C203.35,-2865.23 297.3,-2872.47 350.15,-2876.54"/>
<polygon fill="#757575" stroke="#757575" points="349.9,-2880.04 360.14,-2877.31 350.44,-2873.06 349.9,-2880.04"/>
</g>
<!-- git/c.js -->
<g id="node96" class="node">
<title>git/c.js</title>
<path fill="none" stroke="#cfffac" d="M610.83,-2871C610.83,-2871 569.17,-2871 569.17,-2871 565.33,-2871 561.5,-2867.17 561.5,-2863.33 561.5,-2863.33 561.5,-2855.67 561.5,-2855.67 561.5,-2851.83 565.33,-2848 569.17,-2848 569.17,-2848 610.83,-2848 610.83,-2848 614.67,-2848 618.5,-2851.83 618.5,-2855.67 618.5,-2855.67 618.5,-2863.33 618.5,-2863.33 618.5,-2867.17 614.67,-2871 610.83,-2871"/>
<text text-anchor="middle" x="590" y="-2855.8" font-family="Arial" font-size="14.00" fill="#cfffac">git/c.js</text>
</g>
<!-- git/a.js&#45;&gt;git/c.js -->
<g id="edge42" class="edge">
<title>git/a.js&#45;&gt;git/c.js</title>
<path fill="none" stroke="#757575" d="M156.74,-2859.5C235.59,-2859.5 461.12,-2859.5 551.18,-2859.5"/>
<polygon fill="#757575" stroke="#757575" points="551.22,-2863 561.22,-2859.5 551.22,-2856 551.22,-2863"/>
</g>
<!-- git/b.js&#45;&gt;git/c.js -->
<g id="edge43" class="edge">
<title>git/b.js&#45;&gt;git/c.js</title>
<path fill="none" stroke="#757575" d="M418.52,-2876.68C453.2,-2873.18 512.4,-2867.22 551.11,-2863.32"/>
<polygon fill="#757575" stroke="#757575" points="551.84,-2866.76 561.44,-2862.28 551.14,-2859.8 551.84,-2866.76"/>
</g>
<!-- jsx.js -->
<g id="node97" class="node">
<title>jsx.js</title>
<path fill="none" stroke="#c6c5fe" d="M147.33,-64C147.33,-64 108.67,-64 108.67,-64 104.83,-64 101,-60.17 101,-56.33 101,-56.33 101,-48.67 101,-48.67 101,-44.83 104.83,-41 108.67,-41 108.67,-41 147.33,-41 147.33,-41 151.17,-41 155,-44.83 155,-48.67 155,-48.67 155,-56.33 155,-56.33 155,-60.17 151.17,-64 147.33,-64"/>
<text text-anchor="middle" x="128" y="-48.8" font-family="Arial" font-size="14.00" fill="#c6c5fe">jsx.js</text>
</g>
<!-- jsx.js&#45;&gt;../lib/api.js -->
<g id="edge44" class="edge">
<title>jsx.js&#45;&gt;../lib/api.js</title>
<path fill="none" stroke="#757575" d="M155.07,-53.55C181.3,-55.3 222.55,-59.99 256,-72.5 298.07,-88.24 341.12,-118.31 366.3,-137.61"/>
<polygon fill="#757575" stroke="#757575" points="364.39,-140.56 374.43,-143.95 368.7,-135.04 364.39,-140.56"/>
</g>
<!-- typescript.js -->
<g id="node98" class="node">
<title>typescript.js</title>
<path fill="none" stroke="#c6c5fe" d="M166.33,-23C166.33,-23 89.67,-23 89.67,-23 85.83,-23 82,-19.17 82,-15.33 82,-15.33 82,-7.67 82,-7.67 82,-3.83 85.83,0 89.67,0 89.67,0 166.33,0 166.33,0 170.17,0 174,-3.83 174,-7.67 174,-7.67 174,-15.33 174,-15.33 174,-19.17 170.17,-23 166.33,-23"/>
<text text-anchor="middle" x="128" y="-7.8" font-family="Arial" font-size="14.00" fill="#c6c5fe">typescript.js</text>
</g>
<!-- typescript.js&#45;&gt;../lib/api.js -->
<g id="edge45" class="edge">
<title>typescript.js&#45;&gt;../lib/api.js</title>
<path fill="none" stroke="#757575" d="M174.14,-12.17C199.32,-14.08 230.63,-19.11 256,-31.5 307.06,-56.43 351.93,-107.77 374,-135.94"/>
<polygon fill="#757575" stroke="#757575" points="371.23,-138.09 380.1,-143.89 376.79,-133.82 371.23,-138.09"/>
</g>
</g>
</svg>
